G04 #@! TF.GenerationSoftware,KiCad,Pcbnew,(5.0.2)-1*
G04 #@! TF.CreationDate,2019-07-07T13:50:55+05:30*
G04 #@! TF.ProjectId,tps61500evm,74707336-3135-4303-9065-766d2e6b6963,rev?*
G04 #@! TF.SameCoordinates,Original*
G04 #@! TF.FileFunction,Legend,Top*
G04 #@! TF.FilePolarity,Positive*
%FSLAX46Y46*%
G04 Gerber Fmt 4.6, Leading zero omitted, Abs format (unit mm)*
G04 Created by KiCad (PCBNEW (5.0.2)-1) date 07/07/19 13:50:55*
%MOMM*%
%LPD*%
G01*
G04 APERTURE LIST*
%ADD10C,0.200000*%
%ADD11C,0.100000*%
%ADD12C,0.152400*%
%ADD13C,0.120000*%
%ADD14C,0.150000*%
G04 APERTURE END LIST*
D10*
X22700000Y-36861904D02*
X22652380Y-36957142D01*
X22652380Y-37100000D01*
X22700000Y-37242857D01*
X22795238Y-37338095D01*
X22890476Y-37385714D01*
X23080952Y-37433333D01*
X23223809Y-37433333D01*
X23414285Y-37385714D01*
X23509523Y-37338095D01*
X23604761Y-37242857D01*
X23652380Y-37100000D01*
X23652380Y-37004761D01*
X23604761Y-36861904D01*
X23557142Y-36814285D01*
X23223809Y-36814285D01*
X23223809Y-37004761D01*
X23652380Y-36385714D02*
X22652380Y-36385714D01*
X23652380Y-35814285D01*
X22652380Y-35814285D01*
X23652380Y-35338095D02*
X22652380Y-35338095D01*
X22652380Y-35100000D01*
X22700000Y-34957142D01*
X22795238Y-34861904D01*
X22890476Y-34814285D01*
X23080952Y-34766666D01*
X23223809Y-34766666D01*
X23414285Y-34814285D01*
X23509523Y-34861904D01*
X23604761Y-34957142D01*
X23652380Y-35100000D01*
X23652380Y-35338095D01*
X22800000Y-24861904D02*
X22752380Y-24957142D01*
X22752380Y-25100000D01*
X22800000Y-25242857D01*
X22895238Y-25338095D01*
X22990476Y-25385714D01*
X23180952Y-25433333D01*
X23323809Y-25433333D01*
X23514285Y-25385714D01*
X23609523Y-25338095D01*
X23704761Y-25242857D01*
X23752380Y-25100000D01*
X23752380Y-25004761D01*
X23704761Y-24861904D01*
X23657142Y-24814285D01*
X23323809Y-24814285D01*
X23323809Y-25004761D01*
X23752380Y-24385714D02*
X22752380Y-24385714D01*
X23752380Y-23814285D01*
X22752380Y-23814285D01*
X23752380Y-23338095D02*
X22752380Y-23338095D01*
X22752380Y-23100000D01*
X22800000Y-22957142D01*
X22895238Y-22861904D01*
X22990476Y-22814285D01*
X23180952Y-22766666D01*
X23323809Y-22766666D01*
X23514285Y-22814285D01*
X23609523Y-22861904D01*
X23704761Y-22957142D01*
X23752380Y-23100000D01*
X23752380Y-23338095D01*
D11*
X66550000Y-25480952D02*
X66526190Y-25528571D01*
X66526190Y-25600000D01*
X66550000Y-25671428D01*
X66597619Y-25719047D01*
X66645238Y-25742857D01*
X66740476Y-25766666D01*
X66811904Y-25766666D01*
X66907142Y-25742857D01*
X66954761Y-25719047D01*
X67002380Y-25671428D01*
X67026190Y-25600000D01*
X67026190Y-25552380D01*
X67002380Y-25480952D01*
X66978571Y-25457142D01*
X66811904Y-25457142D01*
X66811904Y-25552380D01*
X67026190Y-25242857D02*
X66526190Y-25242857D01*
X67026190Y-24957142D01*
X66526190Y-24957142D01*
X67026190Y-24719047D02*
X66526190Y-24719047D01*
X66526190Y-24600000D01*
X66550000Y-24528571D01*
X66597619Y-24480952D01*
X66645238Y-24457142D01*
X66740476Y-24433333D01*
X66811904Y-24433333D01*
X66907142Y-24457142D01*
X66954761Y-24480952D01*
X67002380Y-24528571D01*
X67026190Y-24600000D01*
X67026190Y-24719047D01*
X66526190Y-18261904D02*
X67026190Y-18095238D01*
X66526190Y-17928571D01*
X67026190Y-17690476D02*
X67002380Y-17738095D01*
X66978571Y-17761904D01*
X66930952Y-17785714D01*
X66788095Y-17785714D01*
X66740476Y-17761904D01*
X66716666Y-17738095D01*
X66692857Y-17690476D01*
X66692857Y-17619047D01*
X66716666Y-17571428D01*
X66740476Y-17547619D01*
X66788095Y-17523809D01*
X66930952Y-17523809D01*
X66978571Y-17547619D01*
X67002380Y-17571428D01*
X67026190Y-17619047D01*
X67026190Y-17690476D01*
X66692857Y-17095238D02*
X67026190Y-17095238D01*
X66692857Y-17309523D02*
X66954761Y-17309523D01*
X67002380Y-17285714D01*
X67026190Y-17238095D01*
X67026190Y-17166666D01*
X67002380Y-17119047D01*
X66978571Y-17095238D01*
X66692857Y-16928571D02*
X66692857Y-16738095D01*
X66526190Y-16857142D02*
X66954761Y-16857142D01*
X67002380Y-16833333D01*
X67026190Y-16785714D01*
X67026190Y-16738095D01*
D12*
G04 #@! TO.C,U1*
X55587800Y-26635000D02*
X56578400Y-26635000D01*
X49339400Y-28540000D02*
X53860600Y-28540000D01*
X53860600Y-23460000D02*
X51904800Y-23460000D01*
X51904800Y-23460000D02*
X51295200Y-23460000D01*
X51295200Y-23460000D02*
X49339400Y-23460000D01*
X51904800Y-23460000D02*
G75*
G02X51295200Y-23460000I-304800J0D01*
G01*
D13*
G04 #@! TO.C,D1*
X56990000Y-15830000D02*
X56990000Y-22330000D01*
X56990000Y-15830000D02*
X48590000Y-15830000D01*
X56990000Y-22330000D02*
X48590000Y-22330000D01*
G04 #@! TO.C,C1*
X35770000Y-35251422D02*
X35770000Y-35768578D01*
X34350000Y-35251422D02*
X34350000Y-35768578D01*
G04 #@! TO.C,R3*
X44590000Y-35241422D02*
X44590000Y-35758578D01*
X46010000Y-35241422D02*
X46010000Y-35758578D01*
G04 #@! TO.C,R2*
X51060000Y-35241422D02*
X51060000Y-35758578D01*
X49640000Y-35241422D02*
X49640000Y-35758578D01*
G04 #@! TO.C,C2*
X52190000Y-35241422D02*
X52190000Y-35758578D01*
X53610000Y-35241422D02*
X53610000Y-35758578D01*
G04 #@! TO.C,C3*
X40870000Y-35251422D02*
X40870000Y-35768578D01*
X39450000Y-35251422D02*
X39450000Y-35768578D01*
G04 #@! TO.C,C4*
X47090000Y-35251422D02*
X47090000Y-35768578D01*
X48510000Y-35251422D02*
X48510000Y-35768578D01*
G04 #@! TO.C,C5*
X43420000Y-35251422D02*
X43420000Y-35768578D01*
X42000000Y-35251422D02*
X42000000Y-35768578D01*
G04 #@! TO.C,C7*
X54690000Y-35241422D02*
X54690000Y-35758578D01*
X56110000Y-35241422D02*
X56110000Y-35758578D01*
G04 #@! TO.C,C6*
X38320000Y-35251422D02*
X38320000Y-35768578D01*
X36900000Y-35251422D02*
X36900000Y-35768578D01*
G04 #@! TO.C,J4*
X41370000Y-32830000D02*
X41370000Y-31500000D01*
X42700000Y-32830000D02*
X41370000Y-32830000D01*
X43970000Y-32830000D02*
X43970000Y-30170000D01*
X43970000Y-30170000D02*
X46570000Y-30170000D01*
X43970000Y-32830000D02*
X46570000Y-32830000D01*
X46570000Y-32830000D02*
X46570000Y-30170000D01*
G04 #@! TO.C,J3*
X54170000Y-32830000D02*
X54170000Y-30170000D01*
X51570000Y-32830000D02*
X54170000Y-32830000D01*
X51570000Y-30170000D02*
X54170000Y-30170000D01*
X51570000Y-32830000D02*
X51570000Y-30170000D01*
X50300000Y-32830000D02*
X48970000Y-32830000D01*
X48970000Y-32830000D02*
X48970000Y-31500000D01*
G04 #@! TO.C,L1*
X46040000Y-25600000D02*
X46040000Y-28600000D01*
X46040000Y-28600000D02*
X33440000Y-28600000D01*
X33440000Y-28600000D02*
X33440000Y-25600000D01*
X33440000Y-19000000D02*
X33440000Y-16000000D01*
X33440000Y-16000000D02*
X46040000Y-16000000D01*
X46040000Y-16000000D02*
X46040000Y-19000000D01*
G04 #@! TO.C,J5*
X58290000Y-16360000D02*
X58290000Y-26520000D01*
X65910000Y-16360000D02*
X58290000Y-16360000D01*
X65910000Y-26520000D02*
X65910000Y-16360000D01*
X58290000Y-26520000D02*
X65910000Y-26520000D01*
X59560000Y-26520000D02*
X59560000Y-16360000D01*
G04 #@! TO.C,J6*
X59560000Y-38420000D02*
X59560000Y-28260000D01*
X58290000Y-38420000D02*
X65910000Y-38420000D01*
X65910000Y-38420000D02*
X65910000Y-28260000D01*
X65910000Y-28260000D02*
X58290000Y-28260000D01*
X58290000Y-28260000D02*
X58290000Y-38420000D01*
G04 #@! TO.C,J1*
X32010000Y-26340000D02*
X32010000Y-16180000D01*
X24390000Y-26340000D02*
X32010000Y-26340000D01*
X24390000Y-16180000D02*
X24390000Y-26340000D01*
X32010000Y-16180000D02*
X24390000Y-16180000D01*
X30740000Y-16180000D02*
X30740000Y-26340000D01*
G04 #@! TO.C,J2*
X30740000Y-28480000D02*
X30740000Y-38640000D01*
X32010000Y-28480000D02*
X24390000Y-28480000D01*
X24390000Y-28480000D02*
X24390000Y-38640000D01*
X24390000Y-38640000D02*
X32010000Y-38640000D01*
X32010000Y-38640000D02*
X32010000Y-28480000D01*
G04 #@! TO.C,U1*
D14*
X55652380Y-27961904D02*
X56461904Y-27961904D01*
X56557142Y-27914285D01*
X56604761Y-27866666D01*
X56652380Y-27771428D01*
X56652380Y-27580952D01*
X56604761Y-27485714D01*
X56557142Y-27438095D01*
X56461904Y-27390476D01*
X55652380Y-27390476D01*
X56652380Y-26390476D02*
X56652380Y-26961904D01*
X56652380Y-26676190D02*
X55652380Y-26676190D01*
X55795238Y-26771428D01*
X55890476Y-26866666D01*
X55938095Y-26961904D01*
G04 #@! TO.C,D1*
X56752380Y-24138095D02*
X55752380Y-24138095D01*
X55752380Y-23900000D01*
X55800000Y-23757142D01*
X55895238Y-23661904D01*
X55990476Y-23614285D01*
X56180952Y-23566666D01*
X56323809Y-23566666D01*
X56514285Y-23614285D01*
X56609523Y-23661904D01*
X56704761Y-23757142D01*
X56752380Y-23900000D01*
X56752380Y-24138095D01*
X56752380Y-22614285D02*
X56752380Y-23185714D01*
X56752380Y-22900000D02*
X55752380Y-22900000D01*
X55895238Y-22995238D01*
X55990476Y-23090476D01*
X56038095Y-23185714D01*
G04 #@! TO.C,C1*
X35417142Y-38436666D02*
X35464761Y-38484285D01*
X35512380Y-38627142D01*
X35512380Y-38722380D01*
X35464761Y-38865238D01*
X35369523Y-38960476D01*
X35274285Y-39008095D01*
X35083809Y-39055714D01*
X34940952Y-39055714D01*
X34750476Y-39008095D01*
X34655238Y-38960476D01*
X34560000Y-38865238D01*
X34512380Y-38722380D01*
X34512380Y-38627142D01*
X34560000Y-38484285D01*
X34607619Y-38436666D01*
X35512380Y-37484285D02*
X35512380Y-38055714D01*
X35512380Y-37770000D02*
X34512380Y-37770000D01*
X34655238Y-37865238D01*
X34750476Y-37960476D01*
X34798095Y-38055714D01*
G04 #@! TO.C,R3*
X45752380Y-38386666D02*
X45276190Y-38720000D01*
X45752380Y-38958095D02*
X44752380Y-38958095D01*
X44752380Y-38577142D01*
X44800000Y-38481904D01*
X44847619Y-38434285D01*
X44942857Y-38386666D01*
X45085714Y-38386666D01*
X45180952Y-38434285D01*
X45228571Y-38481904D01*
X45276190Y-38577142D01*
X45276190Y-38958095D01*
X44752380Y-38053333D02*
X44752380Y-37434285D01*
X45133333Y-37767619D01*
X45133333Y-37624761D01*
X45180952Y-37529523D01*
X45228571Y-37481904D01*
X45323809Y-37434285D01*
X45561904Y-37434285D01*
X45657142Y-37481904D01*
X45704761Y-37529523D01*
X45752380Y-37624761D01*
X45752380Y-37910476D01*
X45704761Y-38005714D01*
X45657142Y-38053333D01*
G04 #@! TO.C,R2*
X50802380Y-38376666D02*
X50326190Y-38710000D01*
X50802380Y-38948095D02*
X49802380Y-38948095D01*
X49802380Y-38567142D01*
X49850000Y-38471904D01*
X49897619Y-38424285D01*
X49992857Y-38376666D01*
X50135714Y-38376666D01*
X50230952Y-38424285D01*
X50278571Y-38471904D01*
X50326190Y-38567142D01*
X50326190Y-38948095D01*
X49897619Y-37995714D02*
X49850000Y-37948095D01*
X49802380Y-37852857D01*
X49802380Y-37614761D01*
X49850000Y-37519523D01*
X49897619Y-37471904D01*
X49992857Y-37424285D01*
X50088095Y-37424285D01*
X50230952Y-37471904D01*
X50802380Y-38043333D01*
X50802380Y-37424285D01*
G04 #@! TO.C,C2*
X53257142Y-38406666D02*
X53304761Y-38454285D01*
X53352380Y-38597142D01*
X53352380Y-38692380D01*
X53304761Y-38835238D01*
X53209523Y-38930476D01*
X53114285Y-38978095D01*
X52923809Y-39025714D01*
X52780952Y-39025714D01*
X52590476Y-38978095D01*
X52495238Y-38930476D01*
X52400000Y-38835238D01*
X52352380Y-38692380D01*
X52352380Y-38597142D01*
X52400000Y-38454285D01*
X52447619Y-38406666D01*
X52447619Y-38025714D02*
X52400000Y-37978095D01*
X52352380Y-37882857D01*
X52352380Y-37644761D01*
X52400000Y-37549523D01*
X52447619Y-37501904D01*
X52542857Y-37454285D01*
X52638095Y-37454285D01*
X52780952Y-37501904D01*
X53352380Y-38073333D01*
X53352380Y-37454285D01*
G04 #@! TO.C,C3*
X40517142Y-38386666D02*
X40564761Y-38434285D01*
X40612380Y-38577142D01*
X40612380Y-38672380D01*
X40564761Y-38815238D01*
X40469523Y-38910476D01*
X40374285Y-38958095D01*
X40183809Y-39005714D01*
X40040952Y-39005714D01*
X39850476Y-38958095D01*
X39755238Y-38910476D01*
X39660000Y-38815238D01*
X39612380Y-38672380D01*
X39612380Y-38577142D01*
X39660000Y-38434285D01*
X39707619Y-38386666D01*
X39612380Y-38053333D02*
X39612380Y-37434285D01*
X39993333Y-37767619D01*
X39993333Y-37624761D01*
X40040952Y-37529523D01*
X40088571Y-37481904D01*
X40183809Y-37434285D01*
X40421904Y-37434285D01*
X40517142Y-37481904D01*
X40564761Y-37529523D01*
X40612380Y-37624761D01*
X40612380Y-37910476D01*
X40564761Y-38005714D01*
X40517142Y-38053333D01*
G04 #@! TO.C,C4*
X48157142Y-38386666D02*
X48204761Y-38434285D01*
X48252380Y-38577142D01*
X48252380Y-38672380D01*
X48204761Y-38815238D01*
X48109523Y-38910476D01*
X48014285Y-38958095D01*
X47823809Y-39005714D01*
X47680952Y-39005714D01*
X47490476Y-38958095D01*
X47395238Y-38910476D01*
X47300000Y-38815238D01*
X47252380Y-38672380D01*
X47252380Y-38577142D01*
X47300000Y-38434285D01*
X47347619Y-38386666D01*
X47585714Y-37529523D02*
X48252380Y-37529523D01*
X47204761Y-37767619D02*
X47919047Y-38005714D01*
X47919047Y-37386666D01*
G04 #@! TO.C,C5*
X43077142Y-38406666D02*
X43124761Y-38454285D01*
X43172380Y-38597142D01*
X43172380Y-38692380D01*
X43124761Y-38835238D01*
X43029523Y-38930476D01*
X42934285Y-38978095D01*
X42743809Y-39025714D01*
X42600952Y-39025714D01*
X42410476Y-38978095D01*
X42315238Y-38930476D01*
X42220000Y-38835238D01*
X42172380Y-38692380D01*
X42172380Y-38597142D01*
X42220000Y-38454285D01*
X42267619Y-38406666D01*
X42172380Y-37501904D02*
X42172380Y-37978095D01*
X42648571Y-38025714D01*
X42600952Y-37978095D01*
X42553333Y-37882857D01*
X42553333Y-37644761D01*
X42600952Y-37549523D01*
X42648571Y-37501904D01*
X42743809Y-37454285D01*
X42981904Y-37454285D01*
X43077142Y-37501904D01*
X43124761Y-37549523D01*
X43172380Y-37644761D01*
X43172380Y-37882857D01*
X43124761Y-37978095D01*
X43077142Y-38025714D01*
G04 #@! TO.C,C7*
X55757142Y-38426666D02*
X55804761Y-38474285D01*
X55852380Y-38617142D01*
X55852380Y-38712380D01*
X55804761Y-38855238D01*
X55709523Y-38950476D01*
X55614285Y-38998095D01*
X55423809Y-39045714D01*
X55280952Y-39045714D01*
X55090476Y-38998095D01*
X54995238Y-38950476D01*
X54900000Y-38855238D01*
X54852380Y-38712380D01*
X54852380Y-38617142D01*
X54900000Y-38474285D01*
X54947619Y-38426666D01*
X54852380Y-38093333D02*
X54852380Y-37426666D01*
X55852380Y-37855238D01*
G04 #@! TO.C,C6*
X37997142Y-38426666D02*
X38044761Y-38474285D01*
X38092380Y-38617142D01*
X38092380Y-38712380D01*
X38044761Y-38855238D01*
X37949523Y-38950476D01*
X37854285Y-38998095D01*
X37663809Y-39045714D01*
X37520952Y-39045714D01*
X37330476Y-38998095D01*
X37235238Y-38950476D01*
X37140000Y-38855238D01*
X37092380Y-38712380D01*
X37092380Y-38617142D01*
X37140000Y-38474285D01*
X37187619Y-38426666D01*
X37092380Y-37569523D02*
X37092380Y-37760000D01*
X37140000Y-37855238D01*
X37187619Y-37902857D01*
X37330476Y-37998095D01*
X37520952Y-38045714D01*
X37901904Y-38045714D01*
X37997142Y-37998095D01*
X38044761Y-37950476D01*
X38092380Y-37855238D01*
X38092380Y-37664761D01*
X38044761Y-37569523D01*
X37997142Y-37521904D01*
X37901904Y-37474285D01*
X37663809Y-37474285D01*
X37568571Y-37521904D01*
X37520952Y-37569523D01*
X37473333Y-37664761D01*
X37473333Y-37855238D01*
X37520952Y-37950476D01*
X37568571Y-37998095D01*
X37663809Y-38045714D01*
G04 #@! TO.C,J4*
X39822380Y-31833333D02*
X40536666Y-31833333D01*
X40679523Y-31880952D01*
X40774761Y-31976190D01*
X40822380Y-32119047D01*
X40822380Y-32214285D01*
X40155714Y-30928571D02*
X40822380Y-30928571D01*
X39774761Y-31166666D02*
X40489047Y-31404761D01*
X40489047Y-30785714D01*
G04 #@! TO.C,J3*
X47422380Y-31833333D02*
X48136666Y-31833333D01*
X48279523Y-31880952D01*
X48374761Y-31976190D01*
X48422380Y-32119047D01*
X48422380Y-32214285D01*
X47422380Y-31452380D02*
X47422380Y-30833333D01*
X47803333Y-31166666D01*
X47803333Y-31023809D01*
X47850952Y-30928571D01*
X47898571Y-30880952D01*
X47993809Y-30833333D01*
X48231904Y-30833333D01*
X48327142Y-30880952D01*
X48374761Y-30928571D01*
X48422380Y-31023809D01*
X48422380Y-31309523D01*
X48374761Y-31404761D01*
X48327142Y-31452380D01*
G04 #@! TO.C,L1*
X34233333Y-30182380D02*
X33757142Y-30182380D01*
X33757142Y-29182380D01*
X35090476Y-30182380D02*
X34519047Y-30182380D01*
X34804761Y-30182380D02*
X34804761Y-29182380D01*
X34709523Y-29325238D01*
X34614285Y-29420476D01*
X34519047Y-29468095D01*
G04 #@! TO.C,J5*
X67452380Y-22147619D02*
X67452380Y-22623809D01*
X66452380Y-22623809D01*
X66928571Y-21814285D02*
X66928571Y-21480952D01*
X67452380Y-21338095D02*
X67452380Y-21814285D01*
X66452380Y-21814285D01*
X66452380Y-21338095D01*
X67452380Y-20909523D02*
X66452380Y-20909523D01*
X66452380Y-20671428D01*
X66500000Y-20528571D01*
X66595238Y-20433333D01*
X66690476Y-20385714D01*
X66880952Y-20338095D01*
X67023809Y-20338095D01*
X67214285Y-20385714D01*
X67309523Y-20433333D01*
X67404761Y-20528571D01*
X67452380Y-20671428D01*
X67452380Y-20909523D01*
X67404761Y-19957142D02*
X67452380Y-19861904D01*
X67452380Y-19671428D01*
X67404761Y-19576190D01*
X67309523Y-19528571D01*
X67261904Y-19528571D01*
X67166666Y-19576190D01*
X67119047Y-19671428D01*
X67119047Y-19814285D01*
X67071428Y-19909523D01*
X66976190Y-19957142D01*
X66928571Y-19957142D01*
X66833333Y-19909523D01*
X66785714Y-19814285D01*
X66785714Y-19671428D01*
X66833333Y-19576190D01*
G04 #@! TO.C,J6*
X66918571Y-37021904D02*
X66918571Y-37355238D01*
X67442380Y-37355238D02*
X66442380Y-37355238D01*
X66442380Y-36879047D01*
X66918571Y-36164761D02*
X66966190Y-36021904D01*
X67013809Y-35974285D01*
X67109047Y-35926666D01*
X67251904Y-35926666D01*
X67347142Y-35974285D01*
X67394761Y-36021904D01*
X67442380Y-36117142D01*
X67442380Y-36498095D01*
X66442380Y-36498095D01*
X66442380Y-36164761D01*
X66490000Y-36069523D01*
X66537619Y-36021904D01*
X66632857Y-35974285D01*
X66728095Y-35974285D01*
X66823333Y-36021904D01*
X66870952Y-36069523D01*
X66918571Y-36164761D01*
X66918571Y-36498095D01*
X67442380Y-34164761D02*
X66966190Y-34498095D01*
X67442380Y-34736190D02*
X66442380Y-34736190D01*
X66442380Y-34355238D01*
X66490000Y-34259999D01*
X66537619Y-34212380D01*
X66632857Y-34164761D01*
X66775714Y-34164761D01*
X66870952Y-34212380D01*
X66918571Y-34259999D01*
X66966190Y-34355238D01*
X66966190Y-34736190D01*
X67394761Y-33355238D02*
X67442380Y-33450476D01*
X67442380Y-33640952D01*
X67394761Y-33736190D01*
X67299523Y-33783809D01*
X66918571Y-33783809D01*
X66823333Y-33736190D01*
X66775714Y-33640952D01*
X66775714Y-33450476D01*
X66823333Y-33355238D01*
X66918571Y-33307619D01*
X67013809Y-33307619D01*
X67109047Y-33783809D01*
X67394761Y-32926666D02*
X67442380Y-32831428D01*
X67442380Y-32640952D01*
X67394761Y-32545714D01*
X67299523Y-32498095D01*
X67251904Y-32498095D01*
X67156666Y-32545714D01*
X67109047Y-32640952D01*
X67109047Y-32783809D01*
X67061428Y-32879047D01*
X66966190Y-32926666D01*
X66918571Y-32926666D01*
X66823333Y-32879047D01*
X66775714Y-32783809D01*
X66775714Y-32640952D01*
X66823333Y-32545714D01*
X67442380Y-32069523D02*
X66775714Y-32069523D01*
X66442380Y-32069523D02*
X66490000Y-32117142D01*
X66537619Y-32069523D01*
X66490000Y-32021904D01*
X66442380Y-32069523D01*
X66537619Y-32069523D01*
X67394761Y-31640952D02*
X67442380Y-31545714D01*
X67442380Y-31355238D01*
X67394761Y-31260000D01*
X67299523Y-31212380D01*
X67251904Y-31212380D01*
X67156666Y-31260000D01*
X67109047Y-31355238D01*
X67109047Y-31498095D01*
X67061428Y-31593333D01*
X66966190Y-31640952D01*
X66918571Y-31640952D01*
X66823333Y-31593333D01*
X66775714Y-31498095D01*
X66775714Y-31355238D01*
X66823333Y-31260000D01*
X66775714Y-30926666D02*
X66775714Y-30545714D01*
X66442380Y-30783809D02*
X67299523Y-30783809D01*
X67394761Y-30736190D01*
X67442380Y-30640952D01*
X67442380Y-30545714D01*
X67442380Y-30069523D02*
X67394761Y-30164761D01*
X67347142Y-30212380D01*
X67251904Y-30260000D01*
X66966190Y-30260000D01*
X66870952Y-30212380D01*
X66823333Y-30164761D01*
X66775714Y-30069523D01*
X66775714Y-29926666D01*
X66823333Y-29831428D01*
X66870952Y-29783809D01*
X66966190Y-29736190D01*
X67251904Y-29736190D01*
X67347142Y-29783809D01*
X67394761Y-29831428D01*
X67442380Y-29926666D01*
X67442380Y-30069523D01*
X67442380Y-29307619D02*
X66775714Y-29307619D01*
X66966190Y-29307619D02*
X66870952Y-29260000D01*
X66823333Y-29212380D01*
X66775714Y-29117142D01*
X66775714Y-29021904D01*
G04 #@! TO.C,J1*
D10*
X22652380Y-19323809D02*
X23652380Y-18990476D01*
X22652380Y-18657142D01*
X23652380Y-18323809D02*
X22985714Y-18323809D01*
X22652380Y-18323809D02*
X22700000Y-18371428D01*
X22747619Y-18323809D01*
X22700000Y-18276190D01*
X22652380Y-18323809D01*
X22747619Y-18323809D01*
X22985714Y-17847619D02*
X23652380Y-17847619D01*
X23080952Y-17847619D02*
X23033333Y-17800000D01*
X22985714Y-17704761D01*
X22985714Y-17561904D01*
X23033333Y-17466666D01*
X23128571Y-17419047D01*
X23652380Y-17419047D01*
G04 #@! TO.C,J2*
X23652380Y-32304761D02*
X22652380Y-32304761D01*
X22652380Y-31923809D01*
X22700000Y-31828571D01*
X22747619Y-31780952D01*
X22842857Y-31733333D01*
X22985714Y-31733333D01*
X23080952Y-31780952D01*
X23128571Y-31828571D01*
X23176190Y-31923809D01*
X23176190Y-32304761D01*
X22652380Y-31400000D02*
X23652380Y-31161904D01*
X22938095Y-30971428D01*
X23652380Y-30780952D01*
X22652380Y-30542857D01*
X23652380Y-30161904D02*
X22652380Y-30161904D01*
X23366666Y-29828571D01*
X22652380Y-29495238D01*
X23652380Y-29495238D01*
G04 #@! TD*
M02*
