G04 #@! TF.GenerationSoftware,KiCad,Pcbnew,(5.0.2)-1*
G04 #@! TF.CreationDate,2019-07-07T13:50:55+05:30*
G04 #@! TF.ProjectId,tps61500evm,74707336-3135-4303-9065-766d2e6b6963,rev?*
G04 #@! TF.SameCoordinates,Original*
G04 #@! TF.FileFunction,Copper,L1,Top*
G04 #@! TF.FilePolarity,Positive*
%FSLAX46Y46*%
G04 Gerber Fmt 4.6, Leading zero omitted, Abs format (unit mm)*
G04 Created by KiCad (PCBNEW (5.0.2)-1) date 07/07/19 13:50:55*
%MOMM*%
%LPD*%
G01*
G04 APERTURE LIST*
G04 #@! TA.AperFunction,SMDPad,CuDef*
%ADD10R,1.473200X0.355600*%
G04 #@! TD*
G04 #@! TA.AperFunction,SMDPad,CuDef*
%ADD11R,2.311400X2.463800*%
G04 #@! TD*
G04 #@! TA.AperFunction,SMDPad,CuDef*
%ADD12R,2.500000X3.300000*%
G04 #@! TD*
G04 #@! TA.AperFunction,Conductor*
%ADD13C,0.100000*%
G04 #@! TD*
G04 #@! TA.AperFunction,SMDPad,CuDef*
%ADD14C,0.975000*%
G04 #@! TD*
G04 #@! TA.AperFunction,ComponentPad*
%ADD15O,1.700000X1.700000*%
G04 #@! TD*
G04 #@! TA.AperFunction,ComponentPad*
%ADD16R,1.700000X1.700000*%
G04 #@! TD*
G04 #@! TA.AperFunction,SMDPad,CuDef*
%ADD17R,2.900000X5.400000*%
G04 #@! TD*
G04 #@! TA.AperFunction,ComponentPad*
%ADD18C,3.000000*%
G04 #@! TD*
G04 #@! TA.AperFunction,ComponentPad*
%ADD19R,3.000000X3.000000*%
G04 #@! TD*
G04 #@! TA.AperFunction,ViaPad*
%ADD20C,0.800000*%
G04 #@! TD*
G04 #@! TA.AperFunction,ViaPad*
%ADD21C,1.670000*%
G04 #@! TD*
G04 #@! TA.AperFunction,Conductor*
%ADD22C,0.250000*%
G04 #@! TD*
G04 #@! TA.AperFunction,Conductor*
%ADD23C,2.000000*%
G04 #@! TD*
G04 #@! TA.AperFunction,Conductor*
%ADD24C,0.400000*%
G04 #@! TD*
G04 #@! TA.AperFunction,Conductor*
%ADD25C,0.800000*%
G04 #@! TD*
G04 #@! TA.AperFunction,Conductor*
%ADD26C,0.254000*%
G04 #@! TD*
G04 APERTURE END LIST*
D10*
G04 #@! TO.P,U1,1*
G04 #@! TO.N,/SW*
X48679000Y-24044200D03*
G04 #@! TO.P,U1,2*
X48679000Y-24704600D03*
G04 #@! TO.P,U1,3*
G04 #@! TO.N,/Vin*
X48679000Y-25339600D03*
G04 #@! TO.P,U1,4*
G04 #@! TO.N,/PWM*
X48679000Y-26000000D03*
G04 #@! TO.P,U1,5*
G04 #@! TO.N,Net-(C3-Pad1)*
X48679000Y-26660400D03*
G04 #@! TO.P,U1,6*
G04 #@! TO.N,/DIMC*
X48679000Y-27295400D03*
G04 #@! TO.P,U1,7*
G04 #@! TO.N,GND*
X48679000Y-27955800D03*
G04 #@! TO.P,U1,8*
G04 #@! TO.N,Net-(C4-Pad1)*
X54521000Y-27955800D03*
G04 #@! TO.P,U1,9*
G04 #@! TO.N,/FB*
X54521000Y-27295400D03*
G04 #@! TO.P,U1,10*
G04 #@! TO.N,Net-(R3-Pad1)*
X54521000Y-26660400D03*
G04 #@! TO.P,U1,11*
G04 #@! TO.N,/OVP*
X54521000Y-26000000D03*
G04 #@! TO.P,U1,12*
G04 #@! TO.N,GND*
X54521000Y-25339600D03*
G04 #@! TO.P,U1,13*
X54521000Y-24704600D03*
G04 #@! TO.P,U1,14*
X54521000Y-24044200D03*
D11*
G04 #@! TO.P,U1,15*
X51600000Y-26000000D03*
G04 #@! TD*
D12*
G04 #@! TO.P,D1,1*
G04 #@! TO.N,/Vout*
X55590000Y-19080000D03*
G04 #@! TO.P,D1,2*
G04 #@! TO.N,/SW*
X48790000Y-19080000D03*
G04 #@! TD*
D13*
G04 #@! TO.N,/Vin*
G04 #@! TO.C,C1*
G36*
X35540142Y-34086174D02*
X35563803Y-34089684D01*
X35587007Y-34095496D01*
X35609529Y-34103554D01*
X35631153Y-34113782D01*
X35651670Y-34126079D01*
X35670883Y-34140329D01*
X35688607Y-34156393D01*
X35704671Y-34174117D01*
X35718921Y-34193330D01*
X35731218Y-34213847D01*
X35741446Y-34235471D01*
X35749504Y-34257993D01*
X35755316Y-34281197D01*
X35758826Y-34304858D01*
X35760000Y-34328750D01*
X35760000Y-34816250D01*
X35758826Y-34840142D01*
X35755316Y-34863803D01*
X35749504Y-34887007D01*
X35741446Y-34909529D01*
X35731218Y-34931153D01*
X35718921Y-34951670D01*
X35704671Y-34970883D01*
X35688607Y-34988607D01*
X35670883Y-35004671D01*
X35651670Y-35018921D01*
X35631153Y-35031218D01*
X35609529Y-35041446D01*
X35587007Y-35049504D01*
X35563803Y-35055316D01*
X35540142Y-35058826D01*
X35516250Y-35060000D01*
X34603750Y-35060000D01*
X34579858Y-35058826D01*
X34556197Y-35055316D01*
X34532993Y-35049504D01*
X34510471Y-35041446D01*
X34488847Y-35031218D01*
X34468330Y-35018921D01*
X34449117Y-35004671D01*
X34431393Y-34988607D01*
X34415329Y-34970883D01*
X34401079Y-34951670D01*
X34388782Y-34931153D01*
X34378554Y-34909529D01*
X34370496Y-34887007D01*
X34364684Y-34863803D01*
X34361174Y-34840142D01*
X34360000Y-34816250D01*
X34360000Y-34328750D01*
X34361174Y-34304858D01*
X34364684Y-34281197D01*
X34370496Y-34257993D01*
X34378554Y-34235471D01*
X34388782Y-34213847D01*
X34401079Y-34193330D01*
X34415329Y-34174117D01*
X34431393Y-34156393D01*
X34449117Y-34140329D01*
X34468330Y-34126079D01*
X34488847Y-34113782D01*
X34510471Y-34103554D01*
X34532993Y-34095496D01*
X34556197Y-34089684D01*
X34579858Y-34086174D01*
X34603750Y-34085000D01*
X35516250Y-34085000D01*
X35540142Y-34086174D01*
X35540142Y-34086174D01*
G37*
D14*
G04 #@! TD*
G04 #@! TO.P,C1,1*
G04 #@! TO.N,/Vin*
X35060000Y-34572500D03*
D13*
G04 #@! TO.N,GND*
G04 #@! TO.C,C1*
G36*
X35540142Y-35961174D02*
X35563803Y-35964684D01*
X35587007Y-35970496D01*
X35609529Y-35978554D01*
X35631153Y-35988782D01*
X35651670Y-36001079D01*
X35670883Y-36015329D01*
X35688607Y-36031393D01*
X35704671Y-36049117D01*
X35718921Y-36068330D01*
X35731218Y-36088847D01*
X35741446Y-36110471D01*
X35749504Y-36132993D01*
X35755316Y-36156197D01*
X35758826Y-36179858D01*
X35760000Y-36203750D01*
X35760000Y-36691250D01*
X35758826Y-36715142D01*
X35755316Y-36738803D01*
X35749504Y-36762007D01*
X35741446Y-36784529D01*
X35731218Y-36806153D01*
X35718921Y-36826670D01*
X35704671Y-36845883D01*
X35688607Y-36863607D01*
X35670883Y-36879671D01*
X35651670Y-36893921D01*
X35631153Y-36906218D01*
X35609529Y-36916446D01*
X35587007Y-36924504D01*
X35563803Y-36930316D01*
X35540142Y-36933826D01*
X35516250Y-36935000D01*
X34603750Y-36935000D01*
X34579858Y-36933826D01*
X34556197Y-36930316D01*
X34532993Y-36924504D01*
X34510471Y-36916446D01*
X34488847Y-36906218D01*
X34468330Y-36893921D01*
X34449117Y-36879671D01*
X34431393Y-36863607D01*
X34415329Y-36845883D01*
X34401079Y-36826670D01*
X34388782Y-36806153D01*
X34378554Y-36784529D01*
X34370496Y-36762007D01*
X34364684Y-36738803D01*
X34361174Y-36715142D01*
X34360000Y-36691250D01*
X34360000Y-36203750D01*
X34361174Y-36179858D01*
X34364684Y-36156197D01*
X34370496Y-36132993D01*
X34378554Y-36110471D01*
X34388782Y-36088847D01*
X34401079Y-36068330D01*
X34415329Y-36049117D01*
X34431393Y-36031393D01*
X34449117Y-36015329D01*
X34468330Y-36001079D01*
X34488847Y-35988782D01*
X34510471Y-35978554D01*
X34532993Y-35970496D01*
X34556197Y-35964684D01*
X34579858Y-35961174D01*
X34603750Y-35960000D01*
X35516250Y-35960000D01*
X35540142Y-35961174D01*
X35540142Y-35961174D01*
G37*
D14*
G04 #@! TD*
G04 #@! TO.P,C1,2*
G04 #@! TO.N,GND*
X35060000Y-36447500D03*
D13*
G04 #@! TO.N,GND*
G04 #@! TO.C,R3*
G36*
X45780142Y-35951174D02*
X45803803Y-35954684D01*
X45827007Y-35960496D01*
X45849529Y-35968554D01*
X45871153Y-35978782D01*
X45891670Y-35991079D01*
X45910883Y-36005329D01*
X45928607Y-36021393D01*
X45944671Y-36039117D01*
X45958921Y-36058330D01*
X45971218Y-36078847D01*
X45981446Y-36100471D01*
X45989504Y-36122993D01*
X45995316Y-36146197D01*
X45998826Y-36169858D01*
X46000000Y-36193750D01*
X46000000Y-36681250D01*
X45998826Y-36705142D01*
X45995316Y-36728803D01*
X45989504Y-36752007D01*
X45981446Y-36774529D01*
X45971218Y-36796153D01*
X45958921Y-36816670D01*
X45944671Y-36835883D01*
X45928607Y-36853607D01*
X45910883Y-36869671D01*
X45891670Y-36883921D01*
X45871153Y-36896218D01*
X45849529Y-36906446D01*
X45827007Y-36914504D01*
X45803803Y-36920316D01*
X45780142Y-36923826D01*
X45756250Y-36925000D01*
X44843750Y-36925000D01*
X44819858Y-36923826D01*
X44796197Y-36920316D01*
X44772993Y-36914504D01*
X44750471Y-36906446D01*
X44728847Y-36896218D01*
X44708330Y-36883921D01*
X44689117Y-36869671D01*
X44671393Y-36853607D01*
X44655329Y-36835883D01*
X44641079Y-36816670D01*
X44628782Y-36796153D01*
X44618554Y-36774529D01*
X44610496Y-36752007D01*
X44604684Y-36728803D01*
X44601174Y-36705142D01*
X44600000Y-36681250D01*
X44600000Y-36193750D01*
X44601174Y-36169858D01*
X44604684Y-36146197D01*
X44610496Y-36122993D01*
X44618554Y-36100471D01*
X44628782Y-36078847D01*
X44641079Y-36058330D01*
X44655329Y-36039117D01*
X44671393Y-36021393D01*
X44689117Y-36005329D01*
X44708330Y-35991079D01*
X44728847Y-35978782D01*
X44750471Y-35968554D01*
X44772993Y-35960496D01*
X44796197Y-35954684D01*
X44819858Y-35951174D01*
X44843750Y-35950000D01*
X45756250Y-35950000D01*
X45780142Y-35951174D01*
X45780142Y-35951174D01*
G37*
D14*
G04 #@! TD*
G04 #@! TO.P,R3,2*
G04 #@! TO.N,GND*
X45300000Y-36437500D03*
D13*
G04 #@! TO.N,Net-(R3-Pad1)*
G04 #@! TO.C,R3*
G36*
X45780142Y-34076174D02*
X45803803Y-34079684D01*
X45827007Y-34085496D01*
X45849529Y-34093554D01*
X45871153Y-34103782D01*
X45891670Y-34116079D01*
X45910883Y-34130329D01*
X45928607Y-34146393D01*
X45944671Y-34164117D01*
X45958921Y-34183330D01*
X45971218Y-34203847D01*
X45981446Y-34225471D01*
X45989504Y-34247993D01*
X45995316Y-34271197D01*
X45998826Y-34294858D01*
X46000000Y-34318750D01*
X46000000Y-34806250D01*
X45998826Y-34830142D01*
X45995316Y-34853803D01*
X45989504Y-34877007D01*
X45981446Y-34899529D01*
X45971218Y-34921153D01*
X45958921Y-34941670D01*
X45944671Y-34960883D01*
X45928607Y-34978607D01*
X45910883Y-34994671D01*
X45891670Y-35008921D01*
X45871153Y-35021218D01*
X45849529Y-35031446D01*
X45827007Y-35039504D01*
X45803803Y-35045316D01*
X45780142Y-35048826D01*
X45756250Y-35050000D01*
X44843750Y-35050000D01*
X44819858Y-35048826D01*
X44796197Y-35045316D01*
X44772993Y-35039504D01*
X44750471Y-35031446D01*
X44728847Y-35021218D01*
X44708330Y-35008921D01*
X44689117Y-34994671D01*
X44671393Y-34978607D01*
X44655329Y-34960883D01*
X44641079Y-34941670D01*
X44628782Y-34921153D01*
X44618554Y-34899529D01*
X44610496Y-34877007D01*
X44604684Y-34853803D01*
X44601174Y-34830142D01*
X44600000Y-34806250D01*
X44600000Y-34318750D01*
X44601174Y-34294858D01*
X44604684Y-34271197D01*
X44610496Y-34247993D01*
X44618554Y-34225471D01*
X44628782Y-34203847D01*
X44641079Y-34183330D01*
X44655329Y-34164117D01*
X44671393Y-34146393D01*
X44689117Y-34130329D01*
X44708330Y-34116079D01*
X44728847Y-34103782D01*
X44750471Y-34093554D01*
X44772993Y-34085496D01*
X44796197Y-34079684D01*
X44819858Y-34076174D01*
X44843750Y-34075000D01*
X45756250Y-34075000D01*
X45780142Y-34076174D01*
X45780142Y-34076174D01*
G37*
D14*
G04 #@! TD*
G04 #@! TO.P,R3,1*
G04 #@! TO.N,Net-(R3-Pad1)*
X45300000Y-34562500D03*
D13*
G04 #@! TO.N,/OVP*
G04 #@! TO.C,R2*
G36*
X50830142Y-34076174D02*
X50853803Y-34079684D01*
X50877007Y-34085496D01*
X50899529Y-34093554D01*
X50921153Y-34103782D01*
X50941670Y-34116079D01*
X50960883Y-34130329D01*
X50978607Y-34146393D01*
X50994671Y-34164117D01*
X51008921Y-34183330D01*
X51021218Y-34203847D01*
X51031446Y-34225471D01*
X51039504Y-34247993D01*
X51045316Y-34271197D01*
X51048826Y-34294858D01*
X51050000Y-34318750D01*
X51050000Y-34806250D01*
X51048826Y-34830142D01*
X51045316Y-34853803D01*
X51039504Y-34877007D01*
X51031446Y-34899529D01*
X51021218Y-34921153D01*
X51008921Y-34941670D01*
X50994671Y-34960883D01*
X50978607Y-34978607D01*
X50960883Y-34994671D01*
X50941670Y-35008921D01*
X50921153Y-35021218D01*
X50899529Y-35031446D01*
X50877007Y-35039504D01*
X50853803Y-35045316D01*
X50830142Y-35048826D01*
X50806250Y-35050000D01*
X49893750Y-35050000D01*
X49869858Y-35048826D01*
X49846197Y-35045316D01*
X49822993Y-35039504D01*
X49800471Y-35031446D01*
X49778847Y-35021218D01*
X49758330Y-35008921D01*
X49739117Y-34994671D01*
X49721393Y-34978607D01*
X49705329Y-34960883D01*
X49691079Y-34941670D01*
X49678782Y-34921153D01*
X49668554Y-34899529D01*
X49660496Y-34877007D01*
X49654684Y-34853803D01*
X49651174Y-34830142D01*
X49650000Y-34806250D01*
X49650000Y-34318750D01*
X49651174Y-34294858D01*
X49654684Y-34271197D01*
X49660496Y-34247993D01*
X49668554Y-34225471D01*
X49678782Y-34203847D01*
X49691079Y-34183330D01*
X49705329Y-34164117D01*
X49721393Y-34146393D01*
X49739117Y-34130329D01*
X49758330Y-34116079D01*
X49778847Y-34103782D01*
X49800471Y-34093554D01*
X49822993Y-34085496D01*
X49846197Y-34079684D01*
X49869858Y-34076174D01*
X49893750Y-34075000D01*
X50806250Y-34075000D01*
X50830142Y-34076174D01*
X50830142Y-34076174D01*
G37*
D14*
G04 #@! TD*
G04 #@! TO.P,R2,1*
G04 #@! TO.N,/OVP*
X50350000Y-34562500D03*
D13*
G04 #@! TO.N,GND*
G04 #@! TO.C,R2*
G36*
X50830142Y-35951174D02*
X50853803Y-35954684D01*
X50877007Y-35960496D01*
X50899529Y-35968554D01*
X50921153Y-35978782D01*
X50941670Y-35991079D01*
X50960883Y-36005329D01*
X50978607Y-36021393D01*
X50994671Y-36039117D01*
X51008921Y-36058330D01*
X51021218Y-36078847D01*
X51031446Y-36100471D01*
X51039504Y-36122993D01*
X51045316Y-36146197D01*
X51048826Y-36169858D01*
X51050000Y-36193750D01*
X51050000Y-36681250D01*
X51048826Y-36705142D01*
X51045316Y-36728803D01*
X51039504Y-36752007D01*
X51031446Y-36774529D01*
X51021218Y-36796153D01*
X51008921Y-36816670D01*
X50994671Y-36835883D01*
X50978607Y-36853607D01*
X50960883Y-36869671D01*
X50941670Y-36883921D01*
X50921153Y-36896218D01*
X50899529Y-36906446D01*
X50877007Y-36914504D01*
X50853803Y-36920316D01*
X50830142Y-36923826D01*
X50806250Y-36925000D01*
X49893750Y-36925000D01*
X49869858Y-36923826D01*
X49846197Y-36920316D01*
X49822993Y-36914504D01*
X49800471Y-36906446D01*
X49778847Y-36896218D01*
X49758330Y-36883921D01*
X49739117Y-36869671D01*
X49721393Y-36853607D01*
X49705329Y-36835883D01*
X49691079Y-36816670D01*
X49678782Y-36796153D01*
X49668554Y-36774529D01*
X49660496Y-36752007D01*
X49654684Y-36728803D01*
X49651174Y-36705142D01*
X49650000Y-36681250D01*
X49650000Y-36193750D01*
X49651174Y-36169858D01*
X49654684Y-36146197D01*
X49660496Y-36122993D01*
X49668554Y-36100471D01*
X49678782Y-36078847D01*
X49691079Y-36058330D01*
X49705329Y-36039117D01*
X49721393Y-36021393D01*
X49739117Y-36005329D01*
X49758330Y-35991079D01*
X49778847Y-35978782D01*
X49800471Y-35968554D01*
X49822993Y-35960496D01*
X49846197Y-35954684D01*
X49869858Y-35951174D01*
X49893750Y-35950000D01*
X50806250Y-35950000D01*
X50830142Y-35951174D01*
X50830142Y-35951174D01*
G37*
D14*
G04 #@! TD*
G04 #@! TO.P,R2,2*
G04 #@! TO.N,GND*
X50350000Y-36437500D03*
D13*
G04 #@! TO.N,GND*
G04 #@! TO.C,C2*
G36*
X53380142Y-35951174D02*
X53403803Y-35954684D01*
X53427007Y-35960496D01*
X53449529Y-35968554D01*
X53471153Y-35978782D01*
X53491670Y-35991079D01*
X53510883Y-36005329D01*
X53528607Y-36021393D01*
X53544671Y-36039117D01*
X53558921Y-36058330D01*
X53571218Y-36078847D01*
X53581446Y-36100471D01*
X53589504Y-36122993D01*
X53595316Y-36146197D01*
X53598826Y-36169858D01*
X53600000Y-36193750D01*
X53600000Y-36681250D01*
X53598826Y-36705142D01*
X53595316Y-36728803D01*
X53589504Y-36752007D01*
X53581446Y-36774529D01*
X53571218Y-36796153D01*
X53558921Y-36816670D01*
X53544671Y-36835883D01*
X53528607Y-36853607D01*
X53510883Y-36869671D01*
X53491670Y-36883921D01*
X53471153Y-36896218D01*
X53449529Y-36906446D01*
X53427007Y-36914504D01*
X53403803Y-36920316D01*
X53380142Y-36923826D01*
X53356250Y-36925000D01*
X52443750Y-36925000D01*
X52419858Y-36923826D01*
X52396197Y-36920316D01*
X52372993Y-36914504D01*
X52350471Y-36906446D01*
X52328847Y-36896218D01*
X52308330Y-36883921D01*
X52289117Y-36869671D01*
X52271393Y-36853607D01*
X52255329Y-36835883D01*
X52241079Y-36816670D01*
X52228782Y-36796153D01*
X52218554Y-36774529D01*
X52210496Y-36752007D01*
X52204684Y-36728803D01*
X52201174Y-36705142D01*
X52200000Y-36681250D01*
X52200000Y-36193750D01*
X52201174Y-36169858D01*
X52204684Y-36146197D01*
X52210496Y-36122993D01*
X52218554Y-36100471D01*
X52228782Y-36078847D01*
X52241079Y-36058330D01*
X52255329Y-36039117D01*
X52271393Y-36021393D01*
X52289117Y-36005329D01*
X52308330Y-35991079D01*
X52328847Y-35978782D01*
X52350471Y-35968554D01*
X52372993Y-35960496D01*
X52396197Y-35954684D01*
X52419858Y-35951174D01*
X52443750Y-35950000D01*
X53356250Y-35950000D01*
X53380142Y-35951174D01*
X53380142Y-35951174D01*
G37*
D14*
G04 #@! TD*
G04 #@! TO.P,C2,2*
G04 #@! TO.N,GND*
X52900000Y-36437500D03*
D13*
G04 #@! TO.N,/Vout*
G04 #@! TO.C,C2*
G36*
X53380142Y-34076174D02*
X53403803Y-34079684D01*
X53427007Y-34085496D01*
X53449529Y-34093554D01*
X53471153Y-34103782D01*
X53491670Y-34116079D01*
X53510883Y-34130329D01*
X53528607Y-34146393D01*
X53544671Y-34164117D01*
X53558921Y-34183330D01*
X53571218Y-34203847D01*
X53581446Y-34225471D01*
X53589504Y-34247993D01*
X53595316Y-34271197D01*
X53598826Y-34294858D01*
X53600000Y-34318750D01*
X53600000Y-34806250D01*
X53598826Y-34830142D01*
X53595316Y-34853803D01*
X53589504Y-34877007D01*
X53581446Y-34899529D01*
X53571218Y-34921153D01*
X53558921Y-34941670D01*
X53544671Y-34960883D01*
X53528607Y-34978607D01*
X53510883Y-34994671D01*
X53491670Y-35008921D01*
X53471153Y-35021218D01*
X53449529Y-35031446D01*
X53427007Y-35039504D01*
X53403803Y-35045316D01*
X53380142Y-35048826D01*
X53356250Y-35050000D01*
X52443750Y-35050000D01*
X52419858Y-35048826D01*
X52396197Y-35045316D01*
X52372993Y-35039504D01*
X52350471Y-35031446D01*
X52328847Y-35021218D01*
X52308330Y-35008921D01*
X52289117Y-34994671D01*
X52271393Y-34978607D01*
X52255329Y-34960883D01*
X52241079Y-34941670D01*
X52228782Y-34921153D01*
X52218554Y-34899529D01*
X52210496Y-34877007D01*
X52204684Y-34853803D01*
X52201174Y-34830142D01*
X52200000Y-34806250D01*
X52200000Y-34318750D01*
X52201174Y-34294858D01*
X52204684Y-34271197D01*
X52210496Y-34247993D01*
X52218554Y-34225471D01*
X52228782Y-34203847D01*
X52241079Y-34183330D01*
X52255329Y-34164117D01*
X52271393Y-34146393D01*
X52289117Y-34130329D01*
X52308330Y-34116079D01*
X52328847Y-34103782D01*
X52350471Y-34093554D01*
X52372993Y-34085496D01*
X52396197Y-34079684D01*
X52419858Y-34076174D01*
X52443750Y-34075000D01*
X53356250Y-34075000D01*
X53380142Y-34076174D01*
X53380142Y-34076174D01*
G37*
D14*
G04 #@! TD*
G04 #@! TO.P,C2,1*
G04 #@! TO.N,/Vout*
X52900000Y-34562500D03*
D13*
G04 #@! TO.N,Net-(C3-Pad1)*
G04 #@! TO.C,C3*
G36*
X40640142Y-34086174D02*
X40663803Y-34089684D01*
X40687007Y-34095496D01*
X40709529Y-34103554D01*
X40731153Y-34113782D01*
X40751670Y-34126079D01*
X40770883Y-34140329D01*
X40788607Y-34156393D01*
X40804671Y-34174117D01*
X40818921Y-34193330D01*
X40831218Y-34213847D01*
X40841446Y-34235471D01*
X40849504Y-34257993D01*
X40855316Y-34281197D01*
X40858826Y-34304858D01*
X40860000Y-34328750D01*
X40860000Y-34816250D01*
X40858826Y-34840142D01*
X40855316Y-34863803D01*
X40849504Y-34887007D01*
X40841446Y-34909529D01*
X40831218Y-34931153D01*
X40818921Y-34951670D01*
X40804671Y-34970883D01*
X40788607Y-34988607D01*
X40770883Y-35004671D01*
X40751670Y-35018921D01*
X40731153Y-35031218D01*
X40709529Y-35041446D01*
X40687007Y-35049504D01*
X40663803Y-35055316D01*
X40640142Y-35058826D01*
X40616250Y-35060000D01*
X39703750Y-35060000D01*
X39679858Y-35058826D01*
X39656197Y-35055316D01*
X39632993Y-35049504D01*
X39610471Y-35041446D01*
X39588847Y-35031218D01*
X39568330Y-35018921D01*
X39549117Y-35004671D01*
X39531393Y-34988607D01*
X39515329Y-34970883D01*
X39501079Y-34951670D01*
X39488782Y-34931153D01*
X39478554Y-34909529D01*
X39470496Y-34887007D01*
X39464684Y-34863803D01*
X39461174Y-34840142D01*
X39460000Y-34816250D01*
X39460000Y-34328750D01*
X39461174Y-34304858D01*
X39464684Y-34281197D01*
X39470496Y-34257993D01*
X39478554Y-34235471D01*
X39488782Y-34213847D01*
X39501079Y-34193330D01*
X39515329Y-34174117D01*
X39531393Y-34156393D01*
X39549117Y-34140329D01*
X39568330Y-34126079D01*
X39588847Y-34113782D01*
X39610471Y-34103554D01*
X39632993Y-34095496D01*
X39656197Y-34089684D01*
X39679858Y-34086174D01*
X39703750Y-34085000D01*
X40616250Y-34085000D01*
X40640142Y-34086174D01*
X40640142Y-34086174D01*
G37*
D14*
G04 #@! TD*
G04 #@! TO.P,C3,1*
G04 #@! TO.N,Net-(C3-Pad1)*
X40160000Y-34572500D03*
D13*
G04 #@! TO.N,GND*
G04 #@! TO.C,C3*
G36*
X40640142Y-35961174D02*
X40663803Y-35964684D01*
X40687007Y-35970496D01*
X40709529Y-35978554D01*
X40731153Y-35988782D01*
X40751670Y-36001079D01*
X40770883Y-36015329D01*
X40788607Y-36031393D01*
X40804671Y-36049117D01*
X40818921Y-36068330D01*
X40831218Y-36088847D01*
X40841446Y-36110471D01*
X40849504Y-36132993D01*
X40855316Y-36156197D01*
X40858826Y-36179858D01*
X40860000Y-36203750D01*
X40860000Y-36691250D01*
X40858826Y-36715142D01*
X40855316Y-36738803D01*
X40849504Y-36762007D01*
X40841446Y-36784529D01*
X40831218Y-36806153D01*
X40818921Y-36826670D01*
X40804671Y-36845883D01*
X40788607Y-36863607D01*
X40770883Y-36879671D01*
X40751670Y-36893921D01*
X40731153Y-36906218D01*
X40709529Y-36916446D01*
X40687007Y-36924504D01*
X40663803Y-36930316D01*
X40640142Y-36933826D01*
X40616250Y-36935000D01*
X39703750Y-36935000D01*
X39679858Y-36933826D01*
X39656197Y-36930316D01*
X39632993Y-36924504D01*
X39610471Y-36916446D01*
X39588847Y-36906218D01*
X39568330Y-36893921D01*
X39549117Y-36879671D01*
X39531393Y-36863607D01*
X39515329Y-36845883D01*
X39501079Y-36826670D01*
X39488782Y-36806153D01*
X39478554Y-36784529D01*
X39470496Y-36762007D01*
X39464684Y-36738803D01*
X39461174Y-36715142D01*
X39460000Y-36691250D01*
X39460000Y-36203750D01*
X39461174Y-36179858D01*
X39464684Y-36156197D01*
X39470496Y-36132993D01*
X39478554Y-36110471D01*
X39488782Y-36088847D01*
X39501079Y-36068330D01*
X39515329Y-36049117D01*
X39531393Y-36031393D01*
X39549117Y-36015329D01*
X39568330Y-36001079D01*
X39588847Y-35988782D01*
X39610471Y-35978554D01*
X39632993Y-35970496D01*
X39656197Y-35964684D01*
X39679858Y-35961174D01*
X39703750Y-35960000D01*
X40616250Y-35960000D01*
X40640142Y-35961174D01*
X40640142Y-35961174D01*
G37*
D14*
G04 #@! TD*
G04 #@! TO.P,C3,2*
G04 #@! TO.N,GND*
X40160000Y-36447500D03*
D13*
G04 #@! TO.N,GND*
G04 #@! TO.C,C4*
G36*
X48280142Y-35961174D02*
X48303803Y-35964684D01*
X48327007Y-35970496D01*
X48349529Y-35978554D01*
X48371153Y-35988782D01*
X48391670Y-36001079D01*
X48410883Y-36015329D01*
X48428607Y-36031393D01*
X48444671Y-36049117D01*
X48458921Y-36068330D01*
X48471218Y-36088847D01*
X48481446Y-36110471D01*
X48489504Y-36132993D01*
X48495316Y-36156197D01*
X48498826Y-36179858D01*
X48500000Y-36203750D01*
X48500000Y-36691250D01*
X48498826Y-36715142D01*
X48495316Y-36738803D01*
X48489504Y-36762007D01*
X48481446Y-36784529D01*
X48471218Y-36806153D01*
X48458921Y-36826670D01*
X48444671Y-36845883D01*
X48428607Y-36863607D01*
X48410883Y-36879671D01*
X48391670Y-36893921D01*
X48371153Y-36906218D01*
X48349529Y-36916446D01*
X48327007Y-36924504D01*
X48303803Y-36930316D01*
X48280142Y-36933826D01*
X48256250Y-36935000D01*
X47343750Y-36935000D01*
X47319858Y-36933826D01*
X47296197Y-36930316D01*
X47272993Y-36924504D01*
X47250471Y-36916446D01*
X47228847Y-36906218D01*
X47208330Y-36893921D01*
X47189117Y-36879671D01*
X47171393Y-36863607D01*
X47155329Y-36845883D01*
X47141079Y-36826670D01*
X47128782Y-36806153D01*
X47118554Y-36784529D01*
X47110496Y-36762007D01*
X47104684Y-36738803D01*
X47101174Y-36715142D01*
X47100000Y-36691250D01*
X47100000Y-36203750D01*
X47101174Y-36179858D01*
X47104684Y-36156197D01*
X47110496Y-36132993D01*
X47118554Y-36110471D01*
X47128782Y-36088847D01*
X47141079Y-36068330D01*
X47155329Y-36049117D01*
X47171393Y-36031393D01*
X47189117Y-36015329D01*
X47208330Y-36001079D01*
X47228847Y-35988782D01*
X47250471Y-35978554D01*
X47272993Y-35970496D01*
X47296197Y-35964684D01*
X47319858Y-35961174D01*
X47343750Y-35960000D01*
X48256250Y-35960000D01*
X48280142Y-35961174D01*
X48280142Y-35961174D01*
G37*
D14*
G04 #@! TD*
G04 #@! TO.P,C4,2*
G04 #@! TO.N,GND*
X47800000Y-36447500D03*
D13*
G04 #@! TO.N,Net-(C4-Pad1)*
G04 #@! TO.C,C4*
G36*
X48280142Y-34086174D02*
X48303803Y-34089684D01*
X48327007Y-34095496D01*
X48349529Y-34103554D01*
X48371153Y-34113782D01*
X48391670Y-34126079D01*
X48410883Y-34140329D01*
X48428607Y-34156393D01*
X48444671Y-34174117D01*
X48458921Y-34193330D01*
X48471218Y-34213847D01*
X48481446Y-34235471D01*
X48489504Y-34257993D01*
X48495316Y-34281197D01*
X48498826Y-34304858D01*
X48500000Y-34328750D01*
X48500000Y-34816250D01*
X48498826Y-34840142D01*
X48495316Y-34863803D01*
X48489504Y-34887007D01*
X48481446Y-34909529D01*
X48471218Y-34931153D01*
X48458921Y-34951670D01*
X48444671Y-34970883D01*
X48428607Y-34988607D01*
X48410883Y-35004671D01*
X48391670Y-35018921D01*
X48371153Y-35031218D01*
X48349529Y-35041446D01*
X48327007Y-35049504D01*
X48303803Y-35055316D01*
X48280142Y-35058826D01*
X48256250Y-35060000D01*
X47343750Y-35060000D01*
X47319858Y-35058826D01*
X47296197Y-35055316D01*
X47272993Y-35049504D01*
X47250471Y-35041446D01*
X47228847Y-35031218D01*
X47208330Y-35018921D01*
X47189117Y-35004671D01*
X47171393Y-34988607D01*
X47155329Y-34970883D01*
X47141079Y-34951670D01*
X47128782Y-34931153D01*
X47118554Y-34909529D01*
X47110496Y-34887007D01*
X47104684Y-34863803D01*
X47101174Y-34840142D01*
X47100000Y-34816250D01*
X47100000Y-34328750D01*
X47101174Y-34304858D01*
X47104684Y-34281197D01*
X47110496Y-34257993D01*
X47118554Y-34235471D01*
X47128782Y-34213847D01*
X47141079Y-34193330D01*
X47155329Y-34174117D01*
X47171393Y-34156393D01*
X47189117Y-34140329D01*
X47208330Y-34126079D01*
X47228847Y-34113782D01*
X47250471Y-34103554D01*
X47272993Y-34095496D01*
X47296197Y-34089684D01*
X47319858Y-34086174D01*
X47343750Y-34085000D01*
X48256250Y-34085000D01*
X48280142Y-34086174D01*
X48280142Y-34086174D01*
G37*
D14*
G04 #@! TD*
G04 #@! TO.P,C4,1*
G04 #@! TO.N,Net-(C4-Pad1)*
X47800000Y-34572500D03*
D13*
G04 #@! TO.N,Net-(C5-Pad1)*
G04 #@! TO.C,C5*
G36*
X43190142Y-34086174D02*
X43213803Y-34089684D01*
X43237007Y-34095496D01*
X43259529Y-34103554D01*
X43281153Y-34113782D01*
X43301670Y-34126079D01*
X43320883Y-34140329D01*
X43338607Y-34156393D01*
X43354671Y-34174117D01*
X43368921Y-34193330D01*
X43381218Y-34213847D01*
X43391446Y-34235471D01*
X43399504Y-34257993D01*
X43405316Y-34281197D01*
X43408826Y-34304858D01*
X43410000Y-34328750D01*
X43410000Y-34816250D01*
X43408826Y-34840142D01*
X43405316Y-34863803D01*
X43399504Y-34887007D01*
X43391446Y-34909529D01*
X43381218Y-34931153D01*
X43368921Y-34951670D01*
X43354671Y-34970883D01*
X43338607Y-34988607D01*
X43320883Y-35004671D01*
X43301670Y-35018921D01*
X43281153Y-35031218D01*
X43259529Y-35041446D01*
X43237007Y-35049504D01*
X43213803Y-35055316D01*
X43190142Y-35058826D01*
X43166250Y-35060000D01*
X42253750Y-35060000D01*
X42229858Y-35058826D01*
X42206197Y-35055316D01*
X42182993Y-35049504D01*
X42160471Y-35041446D01*
X42138847Y-35031218D01*
X42118330Y-35018921D01*
X42099117Y-35004671D01*
X42081393Y-34988607D01*
X42065329Y-34970883D01*
X42051079Y-34951670D01*
X42038782Y-34931153D01*
X42028554Y-34909529D01*
X42020496Y-34887007D01*
X42014684Y-34863803D01*
X42011174Y-34840142D01*
X42010000Y-34816250D01*
X42010000Y-34328750D01*
X42011174Y-34304858D01*
X42014684Y-34281197D01*
X42020496Y-34257993D01*
X42028554Y-34235471D01*
X42038782Y-34213847D01*
X42051079Y-34193330D01*
X42065329Y-34174117D01*
X42081393Y-34156393D01*
X42099117Y-34140329D01*
X42118330Y-34126079D01*
X42138847Y-34113782D01*
X42160471Y-34103554D01*
X42182993Y-34095496D01*
X42206197Y-34089684D01*
X42229858Y-34086174D01*
X42253750Y-34085000D01*
X43166250Y-34085000D01*
X43190142Y-34086174D01*
X43190142Y-34086174D01*
G37*
D14*
G04 #@! TD*
G04 #@! TO.P,C5,1*
G04 #@! TO.N,Net-(C5-Pad1)*
X42710000Y-34572500D03*
D13*
G04 #@! TO.N,GND*
G04 #@! TO.C,C5*
G36*
X43190142Y-35961174D02*
X43213803Y-35964684D01*
X43237007Y-35970496D01*
X43259529Y-35978554D01*
X43281153Y-35988782D01*
X43301670Y-36001079D01*
X43320883Y-36015329D01*
X43338607Y-36031393D01*
X43354671Y-36049117D01*
X43368921Y-36068330D01*
X43381218Y-36088847D01*
X43391446Y-36110471D01*
X43399504Y-36132993D01*
X43405316Y-36156197D01*
X43408826Y-36179858D01*
X43410000Y-36203750D01*
X43410000Y-36691250D01*
X43408826Y-36715142D01*
X43405316Y-36738803D01*
X43399504Y-36762007D01*
X43391446Y-36784529D01*
X43381218Y-36806153D01*
X43368921Y-36826670D01*
X43354671Y-36845883D01*
X43338607Y-36863607D01*
X43320883Y-36879671D01*
X43301670Y-36893921D01*
X43281153Y-36906218D01*
X43259529Y-36916446D01*
X43237007Y-36924504D01*
X43213803Y-36930316D01*
X43190142Y-36933826D01*
X43166250Y-36935000D01*
X42253750Y-36935000D01*
X42229858Y-36933826D01*
X42206197Y-36930316D01*
X42182993Y-36924504D01*
X42160471Y-36916446D01*
X42138847Y-36906218D01*
X42118330Y-36893921D01*
X42099117Y-36879671D01*
X42081393Y-36863607D01*
X42065329Y-36845883D01*
X42051079Y-36826670D01*
X42038782Y-36806153D01*
X42028554Y-36784529D01*
X42020496Y-36762007D01*
X42014684Y-36738803D01*
X42011174Y-36715142D01*
X42010000Y-36691250D01*
X42010000Y-36203750D01*
X42011174Y-36179858D01*
X42014684Y-36156197D01*
X42020496Y-36132993D01*
X42028554Y-36110471D01*
X42038782Y-36088847D01*
X42051079Y-36068330D01*
X42065329Y-36049117D01*
X42081393Y-36031393D01*
X42099117Y-36015329D01*
X42118330Y-36001079D01*
X42138847Y-35988782D01*
X42160471Y-35978554D01*
X42182993Y-35970496D01*
X42206197Y-35964684D01*
X42229858Y-35961174D01*
X42253750Y-35960000D01*
X43166250Y-35960000D01*
X43190142Y-35961174D01*
X43190142Y-35961174D01*
G37*
D14*
G04 #@! TD*
G04 #@! TO.P,C5,2*
G04 #@! TO.N,GND*
X42710000Y-36447500D03*
D13*
G04 #@! TO.N,GND*
G04 #@! TO.C,C7*
G36*
X55880142Y-35951174D02*
X55903803Y-35954684D01*
X55927007Y-35960496D01*
X55949529Y-35968554D01*
X55971153Y-35978782D01*
X55991670Y-35991079D01*
X56010883Y-36005329D01*
X56028607Y-36021393D01*
X56044671Y-36039117D01*
X56058921Y-36058330D01*
X56071218Y-36078847D01*
X56081446Y-36100471D01*
X56089504Y-36122993D01*
X56095316Y-36146197D01*
X56098826Y-36169858D01*
X56100000Y-36193750D01*
X56100000Y-36681250D01*
X56098826Y-36705142D01*
X56095316Y-36728803D01*
X56089504Y-36752007D01*
X56081446Y-36774529D01*
X56071218Y-36796153D01*
X56058921Y-36816670D01*
X56044671Y-36835883D01*
X56028607Y-36853607D01*
X56010883Y-36869671D01*
X55991670Y-36883921D01*
X55971153Y-36896218D01*
X55949529Y-36906446D01*
X55927007Y-36914504D01*
X55903803Y-36920316D01*
X55880142Y-36923826D01*
X55856250Y-36925000D01*
X54943750Y-36925000D01*
X54919858Y-36923826D01*
X54896197Y-36920316D01*
X54872993Y-36914504D01*
X54850471Y-36906446D01*
X54828847Y-36896218D01*
X54808330Y-36883921D01*
X54789117Y-36869671D01*
X54771393Y-36853607D01*
X54755329Y-36835883D01*
X54741079Y-36816670D01*
X54728782Y-36796153D01*
X54718554Y-36774529D01*
X54710496Y-36752007D01*
X54704684Y-36728803D01*
X54701174Y-36705142D01*
X54700000Y-36681250D01*
X54700000Y-36193750D01*
X54701174Y-36169858D01*
X54704684Y-36146197D01*
X54710496Y-36122993D01*
X54718554Y-36100471D01*
X54728782Y-36078847D01*
X54741079Y-36058330D01*
X54755329Y-36039117D01*
X54771393Y-36021393D01*
X54789117Y-36005329D01*
X54808330Y-35991079D01*
X54828847Y-35978782D01*
X54850471Y-35968554D01*
X54872993Y-35960496D01*
X54896197Y-35954684D01*
X54919858Y-35951174D01*
X54943750Y-35950000D01*
X55856250Y-35950000D01*
X55880142Y-35951174D01*
X55880142Y-35951174D01*
G37*
D14*
G04 #@! TD*
G04 #@! TO.P,C7,2*
G04 #@! TO.N,GND*
X55400000Y-36437500D03*
D13*
G04 #@! TO.N,/Vout*
G04 #@! TO.C,C7*
G36*
X55880142Y-34076174D02*
X55903803Y-34079684D01*
X55927007Y-34085496D01*
X55949529Y-34093554D01*
X55971153Y-34103782D01*
X55991670Y-34116079D01*
X56010883Y-34130329D01*
X56028607Y-34146393D01*
X56044671Y-34164117D01*
X56058921Y-34183330D01*
X56071218Y-34203847D01*
X56081446Y-34225471D01*
X56089504Y-34247993D01*
X56095316Y-34271197D01*
X56098826Y-34294858D01*
X56100000Y-34318750D01*
X56100000Y-34806250D01*
X56098826Y-34830142D01*
X56095316Y-34853803D01*
X56089504Y-34877007D01*
X56081446Y-34899529D01*
X56071218Y-34921153D01*
X56058921Y-34941670D01*
X56044671Y-34960883D01*
X56028607Y-34978607D01*
X56010883Y-34994671D01*
X55991670Y-35008921D01*
X55971153Y-35021218D01*
X55949529Y-35031446D01*
X55927007Y-35039504D01*
X55903803Y-35045316D01*
X55880142Y-35048826D01*
X55856250Y-35050000D01*
X54943750Y-35050000D01*
X54919858Y-35048826D01*
X54896197Y-35045316D01*
X54872993Y-35039504D01*
X54850471Y-35031446D01*
X54828847Y-35021218D01*
X54808330Y-35008921D01*
X54789117Y-34994671D01*
X54771393Y-34978607D01*
X54755329Y-34960883D01*
X54741079Y-34941670D01*
X54728782Y-34921153D01*
X54718554Y-34899529D01*
X54710496Y-34877007D01*
X54704684Y-34853803D01*
X54701174Y-34830142D01*
X54700000Y-34806250D01*
X54700000Y-34318750D01*
X54701174Y-34294858D01*
X54704684Y-34271197D01*
X54710496Y-34247993D01*
X54718554Y-34225471D01*
X54728782Y-34203847D01*
X54741079Y-34183330D01*
X54755329Y-34164117D01*
X54771393Y-34146393D01*
X54789117Y-34130329D01*
X54808330Y-34116079D01*
X54828847Y-34103782D01*
X54850471Y-34093554D01*
X54872993Y-34085496D01*
X54896197Y-34079684D01*
X54919858Y-34076174D01*
X54943750Y-34075000D01*
X55856250Y-34075000D01*
X55880142Y-34076174D01*
X55880142Y-34076174D01*
G37*
D14*
G04 #@! TD*
G04 #@! TO.P,C7,1*
G04 #@! TO.N,/Vout*
X55400000Y-34562500D03*
D13*
G04 #@! TO.N,/Vin*
G04 #@! TO.C,C6*
G36*
X38090142Y-34086174D02*
X38113803Y-34089684D01*
X38137007Y-34095496D01*
X38159529Y-34103554D01*
X38181153Y-34113782D01*
X38201670Y-34126079D01*
X38220883Y-34140329D01*
X38238607Y-34156393D01*
X38254671Y-34174117D01*
X38268921Y-34193330D01*
X38281218Y-34213847D01*
X38291446Y-34235471D01*
X38299504Y-34257993D01*
X38305316Y-34281197D01*
X38308826Y-34304858D01*
X38310000Y-34328750D01*
X38310000Y-34816250D01*
X38308826Y-34840142D01*
X38305316Y-34863803D01*
X38299504Y-34887007D01*
X38291446Y-34909529D01*
X38281218Y-34931153D01*
X38268921Y-34951670D01*
X38254671Y-34970883D01*
X38238607Y-34988607D01*
X38220883Y-35004671D01*
X38201670Y-35018921D01*
X38181153Y-35031218D01*
X38159529Y-35041446D01*
X38137007Y-35049504D01*
X38113803Y-35055316D01*
X38090142Y-35058826D01*
X38066250Y-35060000D01*
X37153750Y-35060000D01*
X37129858Y-35058826D01*
X37106197Y-35055316D01*
X37082993Y-35049504D01*
X37060471Y-35041446D01*
X37038847Y-35031218D01*
X37018330Y-35018921D01*
X36999117Y-35004671D01*
X36981393Y-34988607D01*
X36965329Y-34970883D01*
X36951079Y-34951670D01*
X36938782Y-34931153D01*
X36928554Y-34909529D01*
X36920496Y-34887007D01*
X36914684Y-34863803D01*
X36911174Y-34840142D01*
X36910000Y-34816250D01*
X36910000Y-34328750D01*
X36911174Y-34304858D01*
X36914684Y-34281197D01*
X36920496Y-34257993D01*
X36928554Y-34235471D01*
X36938782Y-34213847D01*
X36951079Y-34193330D01*
X36965329Y-34174117D01*
X36981393Y-34156393D01*
X36999117Y-34140329D01*
X37018330Y-34126079D01*
X37038847Y-34113782D01*
X37060471Y-34103554D01*
X37082993Y-34095496D01*
X37106197Y-34089684D01*
X37129858Y-34086174D01*
X37153750Y-34085000D01*
X38066250Y-34085000D01*
X38090142Y-34086174D01*
X38090142Y-34086174D01*
G37*
D14*
G04 #@! TD*
G04 #@! TO.P,C6,1*
G04 #@! TO.N,/Vin*
X37610000Y-34572500D03*
D13*
G04 #@! TO.N,GND*
G04 #@! TO.C,C6*
G36*
X38090142Y-35961174D02*
X38113803Y-35964684D01*
X38137007Y-35970496D01*
X38159529Y-35978554D01*
X38181153Y-35988782D01*
X38201670Y-36001079D01*
X38220883Y-36015329D01*
X38238607Y-36031393D01*
X38254671Y-36049117D01*
X38268921Y-36068330D01*
X38281218Y-36088847D01*
X38291446Y-36110471D01*
X38299504Y-36132993D01*
X38305316Y-36156197D01*
X38308826Y-36179858D01*
X38310000Y-36203750D01*
X38310000Y-36691250D01*
X38308826Y-36715142D01*
X38305316Y-36738803D01*
X38299504Y-36762007D01*
X38291446Y-36784529D01*
X38281218Y-36806153D01*
X38268921Y-36826670D01*
X38254671Y-36845883D01*
X38238607Y-36863607D01*
X38220883Y-36879671D01*
X38201670Y-36893921D01*
X38181153Y-36906218D01*
X38159529Y-36916446D01*
X38137007Y-36924504D01*
X38113803Y-36930316D01*
X38090142Y-36933826D01*
X38066250Y-36935000D01*
X37153750Y-36935000D01*
X37129858Y-36933826D01*
X37106197Y-36930316D01*
X37082993Y-36924504D01*
X37060471Y-36916446D01*
X37038847Y-36906218D01*
X37018330Y-36893921D01*
X36999117Y-36879671D01*
X36981393Y-36863607D01*
X36965329Y-36845883D01*
X36951079Y-36826670D01*
X36938782Y-36806153D01*
X36928554Y-36784529D01*
X36920496Y-36762007D01*
X36914684Y-36738803D01*
X36911174Y-36715142D01*
X36910000Y-36691250D01*
X36910000Y-36203750D01*
X36911174Y-36179858D01*
X36914684Y-36156197D01*
X36920496Y-36132993D01*
X36928554Y-36110471D01*
X36938782Y-36088847D01*
X36951079Y-36068330D01*
X36965329Y-36049117D01*
X36981393Y-36031393D01*
X36999117Y-36015329D01*
X37018330Y-36001079D01*
X37038847Y-35988782D01*
X37060471Y-35978554D01*
X37082993Y-35970496D01*
X37106197Y-35964684D01*
X37129858Y-35961174D01*
X37153750Y-35960000D01*
X38066250Y-35960000D01*
X38090142Y-35961174D01*
X38090142Y-35961174D01*
G37*
D14*
G04 #@! TD*
G04 #@! TO.P,C6,2*
G04 #@! TO.N,GND*
X37610000Y-36447500D03*
D15*
G04 #@! TO.P,J4,2*
G04 #@! TO.N,/DIMC*
X45240000Y-31500000D03*
D16*
G04 #@! TO.P,J4,1*
G04 #@! TO.N,Net-(C5-Pad1)*
X42700000Y-31500000D03*
G04 #@! TD*
G04 #@! TO.P,J3,1*
G04 #@! TO.N,/OVP*
X50300000Y-31500000D03*
D15*
G04 #@! TO.P,J3,2*
G04 #@! TO.N,/Vout*
X52840000Y-31500000D03*
G04 #@! TD*
D17*
G04 #@! TO.P,L1,1*
G04 #@! TO.N,/Vin*
X34790000Y-22300000D03*
G04 #@! TO.P,L1,2*
G04 #@! TO.N,/SW*
X44690000Y-22300000D03*
G04 #@! TD*
D18*
G04 #@! TO.P,J5,2*
G04 #@! TO.N,/FB*
X62100000Y-23980000D03*
D19*
G04 #@! TO.P,J5,1*
G04 #@! TO.N,/Vout*
X62100000Y-18900000D03*
G04 #@! TD*
G04 #@! TO.P,J6,1*
G04 #@! TO.N,/FB*
X62100000Y-30800000D03*
D18*
G04 #@! TO.P,J6,2*
G04 #@! TO.N,GND*
X62100000Y-35880000D03*
G04 #@! TD*
G04 #@! TO.P,J1,2*
G04 #@! TO.N,/Vin*
X28200000Y-18720000D03*
D19*
G04 #@! TO.P,J1,1*
G04 #@! TO.N,GND*
X28200000Y-23800000D03*
G04 #@! TD*
G04 #@! TO.P,J2,1*
G04 #@! TO.N,GND*
X28200000Y-36100000D03*
D18*
G04 #@! TO.P,J2,2*
G04 #@! TO.N,/PWM*
X28200000Y-31020000D03*
G04 #@! TD*
D20*
G04 #@! TO.N,GND*
X56400000Y-24900000D03*
X54800000Y-23100000D03*
X56400000Y-23300000D03*
X50200000Y-22900000D03*
X52900000Y-22900000D03*
X51600000Y-22900000D03*
X50400000Y-27900000D03*
X51400000Y-27900000D03*
X50400000Y-24000000D03*
X51600000Y-24000000D03*
X52700000Y-24000000D03*
D21*
X51600000Y-26021400D03*
D20*
G04 #@! TO.N,/PWM*
X45400000Y-26900000D03*
G04 #@! TO.N,/FB*
X56100000Y-28900000D03*
G04 #@! TD*
D22*
G04 #@! TO.N,GND*
X51600000Y-26021400D02*
X51600000Y-26021400D01*
X49665600Y-27955800D02*
X51600000Y-26021400D01*
X48679000Y-27955800D02*
X49665600Y-27955800D01*
X54521000Y-24704600D02*
X54521000Y-25339600D01*
X51600000Y-26021400D02*
X51600000Y-26000000D01*
X55960400Y-25339600D02*
X56400000Y-24900000D01*
X54521000Y-25339600D02*
X55960400Y-25339600D01*
X53534400Y-25339600D02*
X53200000Y-25674000D01*
X54521000Y-25339600D02*
X53534400Y-25339600D01*
G04 #@! TO.N,/PWM*
X47739120Y-26000000D02*
X48679000Y-26000000D01*
X45400000Y-26900000D02*
X46839120Y-26900000D01*
X46839120Y-26900000D02*
X47739120Y-26000000D01*
D23*
G04 #@! TO.N,/Vin*
X34790000Y-34302500D02*
X35060000Y-34572500D01*
X34790000Y-22300000D02*
X34790000Y-34302500D01*
X35060000Y-34572500D02*
X37610000Y-34572500D01*
D22*
X34790000Y-23550000D02*
X34790000Y-22300000D01*
X37240000Y-26000000D02*
X34790000Y-23550000D01*
X47032000Y-26000000D02*
X37240000Y-26000000D01*
X47692400Y-25339600D02*
X47032000Y-26000000D01*
X47692400Y-25339600D02*
X48679000Y-25339600D01*
D23*
X34790000Y-21050000D02*
X34790000Y-22300000D01*
X32460000Y-18720000D02*
X34790000Y-21050000D01*
X28200000Y-18720000D02*
X32460000Y-18720000D01*
G04 #@! TO.N,/FB*
X62130000Y-30170000D02*
X62100000Y-30200000D01*
D22*
X56100000Y-28334315D02*
X56100000Y-28900000D01*
X56100000Y-27887800D02*
X56100000Y-28334315D01*
X55507600Y-27295400D02*
X56100000Y-27887800D01*
X54521000Y-27295400D02*
X55507600Y-27295400D01*
D23*
X62100000Y-26101320D02*
X62100000Y-30800000D01*
X62100000Y-23980000D02*
X62100000Y-26101320D01*
D22*
G04 #@! TO.N,/Vout*
X55956237Y-34006263D02*
X55400000Y-34562500D01*
X57350010Y-32612490D02*
X58840000Y-31122500D01*
X58840000Y-31122500D02*
X58840000Y-22730000D01*
X58840000Y-22730000D02*
X55590000Y-19480000D01*
D23*
X55590000Y-19480000D02*
X55590000Y-19080000D01*
D22*
X57350010Y-32612490D02*
X55956237Y-34006263D01*
X52840000Y-34502500D02*
X52900000Y-34562500D01*
X52840000Y-31500000D02*
X52840000Y-34502500D01*
X52900000Y-34562500D02*
X55400000Y-34562500D01*
D23*
X55770000Y-18900000D02*
X55590000Y-19080000D01*
X62100000Y-18900000D02*
X55770000Y-18900000D01*
D24*
G04 #@! TO.N,/SW*
X48900000Y-23939600D02*
X48900000Y-24600000D01*
D23*
X45570000Y-22300000D02*
X48790000Y-19080000D01*
X44690000Y-22300000D02*
X45570000Y-22300000D01*
D25*
X46390000Y-22300000D02*
X44690000Y-22300000D01*
X48679000Y-23616400D02*
X48679000Y-24044200D01*
X47362600Y-22300000D02*
X46390000Y-22300000D01*
X48679000Y-23616400D02*
X47362600Y-22300000D01*
D24*
X48500000Y-23939600D02*
X48500000Y-24600000D01*
D22*
G04 #@! TO.N,Net-(C3-Pad1)*
X47785840Y-26660400D02*
X46546240Y-27900000D01*
X48679000Y-26660400D02*
X47785840Y-26660400D01*
X46546240Y-27900000D02*
X41200000Y-27900000D01*
X40160000Y-28940000D02*
X41200000Y-27900000D01*
X40160000Y-34572500D02*
X40160000Y-28940000D01*
G04 #@! TO.N,/DIMC*
X47857960Y-27295400D02*
X48679000Y-27295400D01*
X45240000Y-29913360D02*
X47857960Y-27295400D01*
X45240000Y-31500000D02*
X45240000Y-29913360D01*
G04 #@! TO.N,Net-(C4-Pad1)*
X54476800Y-28000000D02*
X54521000Y-27955800D01*
X53369722Y-28000000D02*
X54476800Y-28000000D01*
X52069712Y-29300010D02*
X53369722Y-28000000D01*
X48599990Y-29300010D02*
X52069712Y-29300010D01*
X47800000Y-30100000D02*
X48599990Y-29300010D01*
X47800000Y-34572500D02*
X47800000Y-30100000D01*
G04 #@! TO.N,Net-(R3-Pad1)*
X53130701Y-27531901D02*
X51862602Y-28800000D01*
X53130701Y-27064099D02*
X53130701Y-27531901D01*
X54521000Y-26660400D02*
X53534400Y-26660400D01*
X53534400Y-26660400D02*
X53130701Y-27064099D01*
X51862602Y-28800000D02*
X48300000Y-28800000D01*
X48300000Y-28800000D02*
X47000000Y-30100000D01*
X47000000Y-32862500D02*
X45300000Y-34562500D01*
X47000000Y-30100000D02*
X47000000Y-32862500D01*
G04 #@! TO.N,/OVP*
X50300000Y-34512500D02*
X50350000Y-34562500D01*
X50300000Y-31500000D02*
X50300000Y-34512500D01*
X50300000Y-31500000D02*
X50300000Y-30400000D01*
X50300000Y-30400000D02*
X50899980Y-29800020D01*
X56600000Y-26000000D02*
X54521000Y-26000000D01*
X57100000Y-26500000D02*
X56600000Y-26000000D01*
X50899980Y-29800020D02*
X56599980Y-29800020D01*
X57100000Y-29300000D02*
X57100000Y-26500000D01*
X56599980Y-29800020D02*
X57100000Y-29300000D01*
G04 #@! TO.N,Net-(C5-Pad1)*
X42700000Y-34562500D02*
X42710000Y-34572500D01*
X42700000Y-31500000D02*
X42700000Y-34562500D01*
G04 #@! TD*
D26*
G04 #@! TO.N,GND*
G36*
X67290001Y-39290000D02*
X22710000Y-39290000D01*
X22710000Y-30595322D01*
X26065000Y-30595322D01*
X26065000Y-31444678D01*
X26390034Y-32229380D01*
X26990620Y-32829966D01*
X27775322Y-33155000D01*
X28624678Y-33155000D01*
X29409380Y-32829966D01*
X30009966Y-32229380D01*
X30335000Y-31444678D01*
X30335000Y-30595322D01*
X30009966Y-29810620D01*
X29409380Y-29210034D01*
X28624678Y-28885000D01*
X27775322Y-28885000D01*
X26990620Y-29210034D01*
X26390034Y-29810620D01*
X26065000Y-30595322D01*
X22710000Y-30595322D01*
X22710000Y-18295322D01*
X26065000Y-18295322D01*
X26065000Y-19144678D01*
X26390034Y-19929380D01*
X26990620Y-20529966D01*
X27775322Y-20855000D01*
X28624678Y-20855000D01*
X29409380Y-20529966D01*
X29584346Y-20355000D01*
X31782762Y-20355000D01*
X32692560Y-21264799D01*
X32692560Y-25000000D01*
X32741843Y-25247765D01*
X32882191Y-25457809D01*
X33092235Y-25598157D01*
X33155000Y-25610642D01*
X33155001Y-34141465D01*
X33122969Y-34302500D01*
X33218179Y-34781151D01*
X33249865Y-34940445D01*
X33611232Y-35481269D01*
X33747748Y-35572486D01*
X33790012Y-35614750D01*
X33881231Y-35751269D01*
X34422055Y-36112636D01*
X35060000Y-36239531D01*
X35221031Y-36207500D01*
X37771031Y-36207500D01*
X38247945Y-36112636D01*
X38788769Y-35751269D01*
X39033025Y-35385715D01*
X39073584Y-35446416D01*
X39362706Y-35639602D01*
X39703750Y-35707440D01*
X40616250Y-35707440D01*
X40957294Y-35639602D01*
X41246416Y-35446416D01*
X41435000Y-35164181D01*
X41623584Y-35446416D01*
X41912706Y-35639602D01*
X42253750Y-35707440D01*
X43166250Y-35707440D01*
X43507294Y-35639602D01*
X43796416Y-35446416D01*
X43989602Y-35157294D01*
X44005995Y-35074883D01*
X44020398Y-35147294D01*
X44213584Y-35436416D01*
X44502706Y-35629602D01*
X44843750Y-35697440D01*
X45756250Y-35697440D01*
X46097294Y-35629602D01*
X46386416Y-35436416D01*
X46546659Y-35196596D01*
X46713584Y-35446416D01*
X47002706Y-35639602D01*
X47343750Y-35707440D01*
X48256250Y-35707440D01*
X48597294Y-35639602D01*
X48886416Y-35446416D01*
X49078341Y-35159181D01*
X49263584Y-35436416D01*
X49552706Y-35629602D01*
X49893750Y-35697440D01*
X50806250Y-35697440D01*
X51147294Y-35629602D01*
X51436416Y-35436416D01*
X51625000Y-35154181D01*
X51813584Y-35436416D01*
X52102706Y-35629602D01*
X52443750Y-35697440D01*
X53356250Y-35697440D01*
X53697294Y-35629602D01*
X53986416Y-35436416D01*
X54062533Y-35322500D01*
X54237467Y-35322500D01*
X54313584Y-35436416D01*
X54602706Y-35629602D01*
X54943750Y-35697440D01*
X55856250Y-35697440D01*
X56197294Y-35629602D01*
X56486416Y-35436416D01*
X56679602Y-35147294D01*
X56747440Y-34806250D01*
X56747440Y-34318750D01*
X56742647Y-34294654D01*
X57940339Y-33096963D01*
X57940341Y-33096960D01*
X59324473Y-31712829D01*
X59387929Y-31670429D01*
X59555904Y-31419037D01*
X59600000Y-31197352D01*
X59600000Y-31197348D01*
X59614888Y-31122501D01*
X59600000Y-31047654D01*
X59600000Y-29300000D01*
X59952560Y-29300000D01*
X59952560Y-32300000D01*
X60001843Y-32547765D01*
X60142191Y-32757809D01*
X60352235Y-32898157D01*
X60600000Y-32947440D01*
X63600000Y-32947440D01*
X63847765Y-32898157D01*
X64057809Y-32757809D01*
X64198157Y-32547765D01*
X64247440Y-32300000D01*
X64247440Y-29300000D01*
X64198157Y-29052235D01*
X64057809Y-28842191D01*
X63847765Y-28701843D01*
X63735000Y-28679413D01*
X63735000Y-25364346D01*
X63909966Y-25189380D01*
X64235000Y-24404678D01*
X64235000Y-23555322D01*
X63909966Y-22770620D01*
X63309380Y-22170034D01*
X62524678Y-21845000D01*
X61675322Y-21845000D01*
X60890620Y-22170034D01*
X60290034Y-22770620D01*
X59965000Y-23555322D01*
X59965000Y-24404678D01*
X60290034Y-25189380D01*
X60465001Y-25364347D01*
X60465001Y-25940286D01*
X60465000Y-25940290D01*
X60465001Y-28679413D01*
X60352235Y-28701843D01*
X60142191Y-28842191D01*
X60001843Y-29052235D01*
X59952560Y-29300000D01*
X59600000Y-29300000D01*
X59600000Y-22804846D01*
X59614888Y-22729999D01*
X59600000Y-22655152D01*
X59600000Y-22655148D01*
X59555904Y-22433463D01*
X59387929Y-22182071D01*
X59324473Y-22139671D01*
X57719801Y-20535000D01*
X59979413Y-20535000D01*
X60001843Y-20647765D01*
X60142191Y-20857809D01*
X60352235Y-20998157D01*
X60600000Y-21047440D01*
X63600000Y-21047440D01*
X63847765Y-20998157D01*
X64057809Y-20857809D01*
X64198157Y-20647765D01*
X64247440Y-20400000D01*
X64247440Y-17400000D01*
X64198157Y-17152235D01*
X64057809Y-16942191D01*
X63847765Y-16801843D01*
X63600000Y-16752560D01*
X60600000Y-16752560D01*
X60352235Y-16801843D01*
X60142191Y-16942191D01*
X60001843Y-17152235D01*
X59979413Y-17265000D01*
X57454620Y-17265000D01*
X57438157Y-17182235D01*
X57297809Y-16972191D01*
X57087765Y-16831843D01*
X56840000Y-16782560D01*
X54340000Y-16782560D01*
X54092235Y-16831843D01*
X53882191Y-16972191D01*
X53741843Y-17182235D01*
X53692560Y-17430000D01*
X53692560Y-20730000D01*
X53741843Y-20977765D01*
X53882191Y-21187809D01*
X54092235Y-21328157D01*
X54340000Y-21377440D01*
X56412639Y-21377440D01*
X58080001Y-23044803D01*
X58080000Y-30807698D01*
X56865540Y-32022159D01*
X56865537Y-32022161D01*
X55471767Y-33415932D01*
X55471764Y-33415934D01*
X55460138Y-33427560D01*
X54943750Y-33427560D01*
X54602706Y-33495398D01*
X54313584Y-33688584D01*
X54237467Y-33802500D01*
X54062533Y-33802500D01*
X53986416Y-33688584D01*
X53697294Y-33495398D01*
X53600000Y-33476045D01*
X53600000Y-32778178D01*
X53910625Y-32570625D01*
X54238839Y-32079418D01*
X54354092Y-31500000D01*
X54238839Y-30920582D01*
X53997919Y-30560020D01*
X56525133Y-30560020D01*
X56599980Y-30574908D01*
X56674827Y-30560020D01*
X56674832Y-30560020D01*
X56896517Y-30515924D01*
X57147909Y-30347949D01*
X57190311Y-30284491D01*
X57584473Y-29890329D01*
X57647929Y-29847929D01*
X57815904Y-29596537D01*
X57860000Y-29374852D01*
X57860000Y-29374848D01*
X57874888Y-29300001D01*
X57860000Y-29225154D01*
X57860000Y-26574848D01*
X57874888Y-26500000D01*
X57860000Y-26425152D01*
X57860000Y-26425148D01*
X57815904Y-26203463D01*
X57815904Y-26203462D01*
X57690329Y-26015527D01*
X57647929Y-25952071D01*
X57584472Y-25909671D01*
X57190331Y-25515529D01*
X57147929Y-25452071D01*
X56896537Y-25284096D01*
X56674852Y-25240000D01*
X56674847Y-25240000D01*
X56600000Y-25225112D01*
X56525153Y-25240000D01*
X55529246Y-25240000D01*
X55505365Y-25224043D01*
X55257600Y-25174760D01*
X53784400Y-25174760D01*
X53536635Y-25224043D01*
X53326591Y-25364391D01*
X53186243Y-25574435D01*
X53136960Y-25822200D01*
X53136960Y-26011917D01*
X52986471Y-26112471D01*
X52944069Y-26175930D01*
X52646231Y-26473768D01*
X52582772Y-26516170D01*
X52414797Y-26767563D01*
X52370701Y-26989248D01*
X52370701Y-26989252D01*
X52355813Y-27064099D01*
X52370701Y-27138946D01*
X52370701Y-27217099D01*
X51547801Y-28040000D01*
X49710294Y-28040000D01*
X49873409Y-27931009D01*
X50013757Y-27720965D01*
X50063040Y-27473200D01*
X50063040Y-27117600D01*
X50035252Y-26977900D01*
X50063040Y-26838200D01*
X50063040Y-26482600D01*
X50032726Y-26330200D01*
X50063040Y-26177800D01*
X50063040Y-25822200D01*
X50032726Y-25669800D01*
X50063040Y-25517400D01*
X50063040Y-25161800D01*
X50035252Y-25022100D01*
X50063040Y-24882400D01*
X50063040Y-24526800D01*
X50032726Y-24374400D01*
X50063040Y-24222000D01*
X50063040Y-23866400D01*
X50013757Y-23618635D01*
X49873409Y-23408591D01*
X49665278Y-23269521D01*
X49662084Y-23253463D01*
X49653948Y-23212563D01*
X49425193Y-22870207D01*
X49338776Y-22812465D01*
X48354274Y-21827964D01*
X48804799Y-21377440D01*
X50040000Y-21377440D01*
X50287765Y-21328157D01*
X50497809Y-21187809D01*
X50638157Y-20977765D01*
X50687440Y-20730000D01*
X50687440Y-17430000D01*
X50638157Y-17182235D01*
X50497809Y-16972191D01*
X50287765Y-16831843D01*
X50040000Y-16782560D01*
X47540000Y-16782560D01*
X47292235Y-16831843D01*
X47082191Y-16972191D01*
X46941843Y-17182235D01*
X46892560Y-17430000D01*
X46892560Y-18665201D01*
X46488565Y-19069196D01*
X46387765Y-19001843D01*
X46140000Y-18952560D01*
X43240000Y-18952560D01*
X42992235Y-19001843D01*
X42782191Y-19142191D01*
X42641843Y-19352235D01*
X42592560Y-19600000D01*
X42592560Y-25000000D01*
X42640298Y-25240000D01*
X37554802Y-25240000D01*
X36887440Y-24572638D01*
X36887440Y-19600000D01*
X36838157Y-19352235D01*
X36697809Y-19142191D01*
X36487765Y-19001843D01*
X36240000Y-18952560D01*
X35004799Y-18952560D01*
X33729988Y-17677750D01*
X33638769Y-17541231D01*
X33097945Y-17179864D01*
X32621031Y-17085000D01*
X32621030Y-17085000D01*
X32460000Y-17052969D01*
X32298970Y-17085000D01*
X29584346Y-17085000D01*
X29409380Y-16910034D01*
X28624678Y-16585000D01*
X27775322Y-16585000D01*
X26990620Y-16910034D01*
X26390034Y-17510620D01*
X26065000Y-18295322D01*
X22710000Y-18295322D01*
X22710000Y-15710000D01*
X67290000Y-15710000D01*
X67290001Y-39290000D01*
X67290001Y-39290000D01*
G37*
X67290001Y-39290000D02*
X22710000Y-39290000D01*
X22710000Y-30595322D01*
X26065000Y-30595322D01*
X26065000Y-31444678D01*
X26390034Y-32229380D01*
X26990620Y-32829966D01*
X27775322Y-33155000D01*
X28624678Y-33155000D01*
X29409380Y-32829966D01*
X30009966Y-32229380D01*
X30335000Y-31444678D01*
X30335000Y-30595322D01*
X30009966Y-29810620D01*
X29409380Y-29210034D01*
X28624678Y-28885000D01*
X27775322Y-28885000D01*
X26990620Y-29210034D01*
X26390034Y-29810620D01*
X26065000Y-30595322D01*
X22710000Y-30595322D01*
X22710000Y-18295322D01*
X26065000Y-18295322D01*
X26065000Y-19144678D01*
X26390034Y-19929380D01*
X26990620Y-20529966D01*
X27775322Y-20855000D01*
X28624678Y-20855000D01*
X29409380Y-20529966D01*
X29584346Y-20355000D01*
X31782762Y-20355000D01*
X32692560Y-21264799D01*
X32692560Y-25000000D01*
X32741843Y-25247765D01*
X32882191Y-25457809D01*
X33092235Y-25598157D01*
X33155000Y-25610642D01*
X33155001Y-34141465D01*
X33122969Y-34302500D01*
X33218179Y-34781151D01*
X33249865Y-34940445D01*
X33611232Y-35481269D01*
X33747748Y-35572486D01*
X33790012Y-35614750D01*
X33881231Y-35751269D01*
X34422055Y-36112636D01*
X35060000Y-36239531D01*
X35221031Y-36207500D01*
X37771031Y-36207500D01*
X38247945Y-36112636D01*
X38788769Y-35751269D01*
X39033025Y-35385715D01*
X39073584Y-35446416D01*
X39362706Y-35639602D01*
X39703750Y-35707440D01*
X40616250Y-35707440D01*
X40957294Y-35639602D01*
X41246416Y-35446416D01*
X41435000Y-35164181D01*
X41623584Y-35446416D01*
X41912706Y-35639602D01*
X42253750Y-35707440D01*
X43166250Y-35707440D01*
X43507294Y-35639602D01*
X43796416Y-35446416D01*
X43989602Y-35157294D01*
X44005995Y-35074883D01*
X44020398Y-35147294D01*
X44213584Y-35436416D01*
X44502706Y-35629602D01*
X44843750Y-35697440D01*
X45756250Y-35697440D01*
X46097294Y-35629602D01*
X46386416Y-35436416D01*
X46546659Y-35196596D01*
X46713584Y-35446416D01*
X47002706Y-35639602D01*
X47343750Y-35707440D01*
X48256250Y-35707440D01*
X48597294Y-35639602D01*
X48886416Y-35446416D01*
X49078341Y-35159181D01*
X49263584Y-35436416D01*
X49552706Y-35629602D01*
X49893750Y-35697440D01*
X50806250Y-35697440D01*
X51147294Y-35629602D01*
X51436416Y-35436416D01*
X51625000Y-35154181D01*
X51813584Y-35436416D01*
X52102706Y-35629602D01*
X52443750Y-35697440D01*
X53356250Y-35697440D01*
X53697294Y-35629602D01*
X53986416Y-35436416D01*
X54062533Y-35322500D01*
X54237467Y-35322500D01*
X54313584Y-35436416D01*
X54602706Y-35629602D01*
X54943750Y-35697440D01*
X55856250Y-35697440D01*
X56197294Y-35629602D01*
X56486416Y-35436416D01*
X56679602Y-35147294D01*
X56747440Y-34806250D01*
X56747440Y-34318750D01*
X56742647Y-34294654D01*
X57940339Y-33096963D01*
X57940341Y-33096960D01*
X59324473Y-31712829D01*
X59387929Y-31670429D01*
X59555904Y-31419037D01*
X59600000Y-31197352D01*
X59600000Y-31197348D01*
X59614888Y-31122501D01*
X59600000Y-31047654D01*
X59600000Y-29300000D01*
X59952560Y-29300000D01*
X59952560Y-32300000D01*
X60001843Y-32547765D01*
X60142191Y-32757809D01*
X60352235Y-32898157D01*
X60600000Y-32947440D01*
X63600000Y-32947440D01*
X63847765Y-32898157D01*
X64057809Y-32757809D01*
X64198157Y-32547765D01*
X64247440Y-32300000D01*
X64247440Y-29300000D01*
X64198157Y-29052235D01*
X64057809Y-28842191D01*
X63847765Y-28701843D01*
X63735000Y-28679413D01*
X63735000Y-25364346D01*
X63909966Y-25189380D01*
X64235000Y-24404678D01*
X64235000Y-23555322D01*
X63909966Y-22770620D01*
X63309380Y-22170034D01*
X62524678Y-21845000D01*
X61675322Y-21845000D01*
X60890620Y-22170034D01*
X60290034Y-22770620D01*
X59965000Y-23555322D01*
X59965000Y-24404678D01*
X60290034Y-25189380D01*
X60465001Y-25364347D01*
X60465001Y-25940286D01*
X60465000Y-25940290D01*
X60465001Y-28679413D01*
X60352235Y-28701843D01*
X60142191Y-28842191D01*
X60001843Y-29052235D01*
X59952560Y-29300000D01*
X59600000Y-29300000D01*
X59600000Y-22804846D01*
X59614888Y-22729999D01*
X59600000Y-22655152D01*
X59600000Y-22655148D01*
X59555904Y-22433463D01*
X59387929Y-22182071D01*
X59324473Y-22139671D01*
X57719801Y-20535000D01*
X59979413Y-20535000D01*
X60001843Y-20647765D01*
X60142191Y-20857809D01*
X60352235Y-20998157D01*
X60600000Y-21047440D01*
X63600000Y-21047440D01*
X63847765Y-20998157D01*
X64057809Y-20857809D01*
X64198157Y-20647765D01*
X64247440Y-20400000D01*
X64247440Y-17400000D01*
X64198157Y-17152235D01*
X64057809Y-16942191D01*
X63847765Y-16801843D01*
X63600000Y-16752560D01*
X60600000Y-16752560D01*
X60352235Y-16801843D01*
X60142191Y-16942191D01*
X60001843Y-17152235D01*
X59979413Y-17265000D01*
X57454620Y-17265000D01*
X57438157Y-17182235D01*
X57297809Y-16972191D01*
X57087765Y-16831843D01*
X56840000Y-16782560D01*
X54340000Y-16782560D01*
X54092235Y-16831843D01*
X53882191Y-16972191D01*
X53741843Y-17182235D01*
X53692560Y-17430000D01*
X53692560Y-20730000D01*
X53741843Y-20977765D01*
X53882191Y-21187809D01*
X54092235Y-21328157D01*
X54340000Y-21377440D01*
X56412639Y-21377440D01*
X58080001Y-23044803D01*
X58080000Y-30807698D01*
X56865540Y-32022159D01*
X56865537Y-32022161D01*
X55471767Y-33415932D01*
X55471764Y-33415934D01*
X55460138Y-33427560D01*
X54943750Y-33427560D01*
X54602706Y-33495398D01*
X54313584Y-33688584D01*
X54237467Y-33802500D01*
X54062533Y-33802500D01*
X53986416Y-33688584D01*
X53697294Y-33495398D01*
X53600000Y-33476045D01*
X53600000Y-32778178D01*
X53910625Y-32570625D01*
X54238839Y-32079418D01*
X54354092Y-31500000D01*
X54238839Y-30920582D01*
X53997919Y-30560020D01*
X56525133Y-30560020D01*
X56599980Y-30574908D01*
X56674827Y-30560020D01*
X56674832Y-30560020D01*
X56896517Y-30515924D01*
X57147909Y-30347949D01*
X57190311Y-30284491D01*
X57584473Y-29890329D01*
X57647929Y-29847929D01*
X57815904Y-29596537D01*
X57860000Y-29374852D01*
X57860000Y-29374848D01*
X57874888Y-29300001D01*
X57860000Y-29225154D01*
X57860000Y-26574848D01*
X57874888Y-26500000D01*
X57860000Y-26425152D01*
X57860000Y-26425148D01*
X57815904Y-26203463D01*
X57815904Y-26203462D01*
X57690329Y-26015527D01*
X57647929Y-25952071D01*
X57584472Y-25909671D01*
X57190331Y-25515529D01*
X57147929Y-25452071D01*
X56896537Y-25284096D01*
X56674852Y-25240000D01*
X56674847Y-25240000D01*
X56600000Y-25225112D01*
X56525153Y-25240000D01*
X55529246Y-25240000D01*
X55505365Y-25224043D01*
X55257600Y-25174760D01*
X53784400Y-25174760D01*
X53536635Y-25224043D01*
X53326591Y-25364391D01*
X53186243Y-25574435D01*
X53136960Y-25822200D01*
X53136960Y-26011917D01*
X52986471Y-26112471D01*
X52944069Y-26175930D01*
X52646231Y-26473768D01*
X52582772Y-26516170D01*
X52414797Y-26767563D01*
X52370701Y-26989248D01*
X52370701Y-26989252D01*
X52355813Y-27064099D01*
X52370701Y-27138946D01*
X52370701Y-27217099D01*
X51547801Y-28040000D01*
X49710294Y-28040000D01*
X49873409Y-27931009D01*
X50013757Y-27720965D01*
X50063040Y-27473200D01*
X50063040Y-27117600D01*
X50035252Y-26977900D01*
X50063040Y-26838200D01*
X50063040Y-26482600D01*
X50032726Y-26330200D01*
X50063040Y-26177800D01*
X50063040Y-25822200D01*
X50032726Y-25669800D01*
X50063040Y-25517400D01*
X50063040Y-25161800D01*
X50035252Y-25022100D01*
X50063040Y-24882400D01*
X50063040Y-24526800D01*
X50032726Y-24374400D01*
X50063040Y-24222000D01*
X50063040Y-23866400D01*
X50013757Y-23618635D01*
X49873409Y-23408591D01*
X49665278Y-23269521D01*
X49662084Y-23253463D01*
X49653948Y-23212563D01*
X49425193Y-22870207D01*
X49338776Y-22812465D01*
X48354274Y-21827964D01*
X48804799Y-21377440D01*
X50040000Y-21377440D01*
X50287765Y-21328157D01*
X50497809Y-21187809D01*
X50638157Y-20977765D01*
X50687440Y-20730000D01*
X50687440Y-17430000D01*
X50638157Y-17182235D01*
X50497809Y-16972191D01*
X50287765Y-16831843D01*
X50040000Y-16782560D01*
X47540000Y-16782560D01*
X47292235Y-16831843D01*
X47082191Y-16972191D01*
X46941843Y-17182235D01*
X46892560Y-17430000D01*
X46892560Y-18665201D01*
X46488565Y-19069196D01*
X46387765Y-19001843D01*
X46140000Y-18952560D01*
X43240000Y-18952560D01*
X42992235Y-19001843D01*
X42782191Y-19142191D01*
X42641843Y-19352235D01*
X42592560Y-19600000D01*
X42592560Y-25000000D01*
X42640298Y-25240000D01*
X37554802Y-25240000D01*
X36887440Y-24572638D01*
X36887440Y-19600000D01*
X36838157Y-19352235D01*
X36697809Y-19142191D01*
X36487765Y-19001843D01*
X36240000Y-18952560D01*
X35004799Y-18952560D01*
X33729988Y-17677750D01*
X33638769Y-17541231D01*
X33097945Y-17179864D01*
X32621031Y-17085000D01*
X32621030Y-17085000D01*
X32460000Y-17052969D01*
X32298970Y-17085000D01*
X29584346Y-17085000D01*
X29409380Y-16910034D01*
X28624678Y-16585000D01*
X27775322Y-16585000D01*
X26990620Y-16910034D01*
X26390034Y-17510620D01*
X26065000Y-18295322D01*
X22710000Y-18295322D01*
X22710000Y-15710000D01*
X67290000Y-15710000D01*
X67290001Y-39290000D01*
G04 #@! TD*
M02*
