G04 #@! TF.GenerationSoftware,KiCad,Pcbnew,(5.0.2)-1*
G04 #@! TF.CreationDate,2019-07-07T13:50:55+05:30*
G04 #@! TF.ProjectId,tps61500evm,74707336-3135-4303-9065-766d2e6b6963,rev?*
G04 #@! TF.SameCoordinates,Original*
G04 #@! TF.FileFunction,Copper,L2,Bot*
G04 #@! TF.FilePolarity,Positive*
%FSLAX46Y46*%
G04 Gerber Fmt 4.6, Leading zero omitted, Abs format (unit mm)*
G04 Created by KiCad (PCBNEW (5.0.2)-1) date 07/07/19 13:50:55*
%MOMM*%
%LPD*%
G01*
G04 APERTURE LIST*
G04 #@! TA.AperFunction,ComponentPad*
%ADD10O,1.700000X1.700000*%
G04 #@! TD*
G04 #@! TA.AperFunction,ComponentPad*
%ADD11R,1.700000X1.700000*%
G04 #@! TD*
G04 #@! TA.AperFunction,ComponentPad*
%ADD12C,3.000000*%
G04 #@! TD*
G04 #@! TA.AperFunction,ComponentPad*
%ADD13R,3.000000X3.000000*%
G04 #@! TD*
G04 #@! TA.AperFunction,ViaPad*
%ADD14C,0.800000*%
G04 #@! TD*
G04 #@! TA.AperFunction,ViaPad*
%ADD15C,1.670000*%
G04 #@! TD*
G04 #@! TA.AperFunction,Conductor*
%ADD16C,0.250000*%
G04 #@! TD*
G04 #@! TA.AperFunction,Conductor*
%ADD17C,0.254000*%
G04 #@! TD*
G04 APERTURE END LIST*
D10*
G04 #@! TO.P,J4,2*
G04 #@! TO.N,/DIMC*
X45240000Y-31500000D03*
D11*
G04 #@! TO.P,J4,1*
G04 #@! TO.N,Net-(C5-Pad1)*
X42700000Y-31500000D03*
G04 #@! TD*
G04 #@! TO.P,J3,1*
G04 #@! TO.N,/OVP*
X50300000Y-31500000D03*
D10*
G04 #@! TO.P,J3,2*
G04 #@! TO.N,/Vout*
X52840000Y-31500000D03*
G04 #@! TD*
D12*
G04 #@! TO.P,J5,2*
G04 #@! TO.N,/FB*
X62100000Y-23980000D03*
D13*
G04 #@! TO.P,J5,1*
G04 #@! TO.N,/Vout*
X62100000Y-18900000D03*
G04 #@! TD*
G04 #@! TO.P,J6,1*
G04 #@! TO.N,/FB*
X62100000Y-30800000D03*
D12*
G04 #@! TO.P,J6,2*
G04 #@! TO.N,GND*
X62100000Y-35880000D03*
G04 #@! TD*
G04 #@! TO.P,J1,2*
G04 #@! TO.N,/Vin*
X28200000Y-18720000D03*
D13*
G04 #@! TO.P,J1,1*
G04 #@! TO.N,GND*
X28200000Y-23800000D03*
G04 #@! TD*
G04 #@! TO.P,J2,1*
G04 #@! TO.N,GND*
X28200000Y-36100000D03*
D12*
G04 #@! TO.P,J2,2*
G04 #@! TO.N,/PWM*
X28200000Y-31020000D03*
G04 #@! TD*
D14*
G04 #@! TO.N,GND*
X56400000Y-24900000D03*
X54800000Y-23100000D03*
X56400000Y-23300000D03*
X50200000Y-22900000D03*
X52900000Y-22900000D03*
X51600000Y-22900000D03*
X50400000Y-27900000D03*
X51400000Y-27900000D03*
X50400000Y-24000000D03*
X51600000Y-24000000D03*
X52700000Y-24000000D03*
D15*
X51600000Y-26021400D03*
D14*
G04 #@! TO.N,/PWM*
X45400000Y-26900000D03*
G04 #@! TO.N,/FB*
X56100000Y-28900000D03*
G04 #@! TD*
D16*
G04 #@! TO.N,/PWM*
X31620000Y-26900000D02*
X45400000Y-26900000D01*
X30198680Y-26900000D02*
X31620000Y-26900000D01*
X28200000Y-28898680D02*
X30198680Y-26900000D01*
X28200000Y-31020000D02*
X28200000Y-28898680D01*
G04 #@! TO.N,/FB*
X57400000Y-30200000D02*
X56100000Y-28900000D01*
X62100000Y-30200000D02*
X57400000Y-30200000D01*
G04 #@! TD*
D17*
G04 #@! TO.N,GND*
G36*
X67290001Y-39290000D02*
X22710000Y-39290000D01*
X22710000Y-30595322D01*
X26065000Y-30595322D01*
X26065000Y-31444678D01*
X26390034Y-32229380D01*
X26990620Y-32829966D01*
X27775322Y-33155000D01*
X28624678Y-33155000D01*
X29409380Y-32829966D01*
X30009966Y-32229380D01*
X30335000Y-31444678D01*
X30335000Y-30650000D01*
X41202560Y-30650000D01*
X41202560Y-32350000D01*
X41251843Y-32597765D01*
X41392191Y-32807809D01*
X41602235Y-32948157D01*
X41850000Y-32997440D01*
X43550000Y-32997440D01*
X43797765Y-32948157D01*
X44007809Y-32807809D01*
X44148157Y-32597765D01*
X44157184Y-32552381D01*
X44169375Y-32570625D01*
X44660582Y-32898839D01*
X45093744Y-32985000D01*
X45386256Y-32985000D01*
X45819418Y-32898839D01*
X46310625Y-32570625D01*
X46638839Y-32079418D01*
X46754092Y-31500000D01*
X46638839Y-30920582D01*
X46458042Y-30650000D01*
X48802560Y-30650000D01*
X48802560Y-32350000D01*
X48851843Y-32597765D01*
X48992191Y-32807809D01*
X49202235Y-32948157D01*
X49450000Y-32997440D01*
X51150000Y-32997440D01*
X51397765Y-32948157D01*
X51607809Y-32807809D01*
X51748157Y-32597765D01*
X51757184Y-32552381D01*
X51769375Y-32570625D01*
X52260582Y-32898839D01*
X52693744Y-32985000D01*
X52986256Y-32985000D01*
X53419418Y-32898839D01*
X53910625Y-32570625D01*
X54238839Y-32079418D01*
X54354092Y-31500000D01*
X54238839Y-30920582D01*
X53910625Y-30429375D01*
X53419418Y-30101161D01*
X52986256Y-30015000D01*
X52693744Y-30015000D01*
X52260582Y-30101161D01*
X51769375Y-30429375D01*
X51757184Y-30447619D01*
X51748157Y-30402235D01*
X51607809Y-30192191D01*
X51397765Y-30051843D01*
X51150000Y-30002560D01*
X49450000Y-30002560D01*
X49202235Y-30051843D01*
X48992191Y-30192191D01*
X48851843Y-30402235D01*
X48802560Y-30650000D01*
X46458042Y-30650000D01*
X46310625Y-30429375D01*
X45819418Y-30101161D01*
X45386256Y-30015000D01*
X45093744Y-30015000D01*
X44660582Y-30101161D01*
X44169375Y-30429375D01*
X44157184Y-30447619D01*
X44148157Y-30402235D01*
X44007809Y-30192191D01*
X43797765Y-30051843D01*
X43550000Y-30002560D01*
X41850000Y-30002560D01*
X41602235Y-30051843D01*
X41392191Y-30192191D01*
X41251843Y-30402235D01*
X41202560Y-30650000D01*
X30335000Y-30650000D01*
X30335000Y-30595322D01*
X30009966Y-29810620D01*
X29409380Y-29210034D01*
X29094058Y-29079423D01*
X29479355Y-28694126D01*
X55065000Y-28694126D01*
X55065000Y-29105874D01*
X55222569Y-29486280D01*
X55513720Y-29777431D01*
X55894126Y-29935000D01*
X56060199Y-29935000D01*
X56809671Y-30684473D01*
X56852071Y-30747929D01*
X57103463Y-30915904D01*
X57325148Y-30960000D01*
X57325152Y-30960000D01*
X57400000Y-30974888D01*
X57474848Y-30960000D01*
X59952560Y-30960000D01*
X59952560Y-32300000D01*
X60001843Y-32547765D01*
X60142191Y-32757809D01*
X60352235Y-32898157D01*
X60600000Y-32947440D01*
X63600000Y-32947440D01*
X63847765Y-32898157D01*
X64057809Y-32757809D01*
X64198157Y-32547765D01*
X64247440Y-32300000D01*
X64247440Y-29300000D01*
X64198157Y-29052235D01*
X64057809Y-28842191D01*
X63847765Y-28701843D01*
X63600000Y-28652560D01*
X60600000Y-28652560D01*
X60352235Y-28701843D01*
X60142191Y-28842191D01*
X60001843Y-29052235D01*
X59952560Y-29300000D01*
X59952560Y-29440000D01*
X57714802Y-29440000D01*
X57135000Y-28860199D01*
X57135000Y-28694126D01*
X56977431Y-28313720D01*
X56686280Y-28022569D01*
X56305874Y-27865000D01*
X55894126Y-27865000D01*
X55513720Y-28022569D01*
X55222569Y-28313720D01*
X55065000Y-28694126D01*
X29479355Y-28694126D01*
X30513483Y-27660000D01*
X44696289Y-27660000D01*
X44813720Y-27777431D01*
X45194126Y-27935000D01*
X45605874Y-27935000D01*
X45986280Y-27777431D01*
X46277431Y-27486280D01*
X46435000Y-27105874D01*
X46435000Y-26694126D01*
X46277431Y-26313720D01*
X45986280Y-26022569D01*
X45605874Y-25865000D01*
X45194126Y-25865000D01*
X44813720Y-26022569D01*
X44696289Y-26140000D01*
X30273526Y-26140000D01*
X30198679Y-26125112D01*
X30123832Y-26140000D01*
X30123828Y-26140000D01*
X29902143Y-26184096D01*
X29902141Y-26184097D01*
X29902142Y-26184097D01*
X29714206Y-26309671D01*
X29714204Y-26309673D01*
X29650751Y-26352071D01*
X29608353Y-26415524D01*
X27715528Y-28308351D01*
X27652072Y-28350751D01*
X27609672Y-28414207D01*
X27609671Y-28414208D01*
X27484097Y-28602143D01*
X27425112Y-28898680D01*
X27440001Y-28973532D01*
X27440001Y-29023894D01*
X26990620Y-29210034D01*
X26390034Y-29810620D01*
X26065000Y-30595322D01*
X22710000Y-30595322D01*
X22710000Y-23555322D01*
X59965000Y-23555322D01*
X59965000Y-24404678D01*
X60290034Y-25189380D01*
X60890620Y-25789966D01*
X61675322Y-26115000D01*
X62524678Y-26115000D01*
X63309380Y-25789966D01*
X63909966Y-25189380D01*
X64235000Y-24404678D01*
X64235000Y-23555322D01*
X63909966Y-22770620D01*
X63309380Y-22170034D01*
X62524678Y-21845000D01*
X61675322Y-21845000D01*
X60890620Y-22170034D01*
X60290034Y-22770620D01*
X59965000Y-23555322D01*
X22710000Y-23555322D01*
X22710000Y-18295322D01*
X26065000Y-18295322D01*
X26065000Y-19144678D01*
X26390034Y-19929380D01*
X26990620Y-20529966D01*
X27775322Y-20855000D01*
X28624678Y-20855000D01*
X29409380Y-20529966D01*
X30009966Y-19929380D01*
X30335000Y-19144678D01*
X30335000Y-18295322D01*
X30009966Y-17510620D01*
X29899346Y-17400000D01*
X59952560Y-17400000D01*
X59952560Y-20400000D01*
X60001843Y-20647765D01*
X60142191Y-20857809D01*
X60352235Y-20998157D01*
X60600000Y-21047440D01*
X63600000Y-21047440D01*
X63847765Y-20998157D01*
X64057809Y-20857809D01*
X64198157Y-20647765D01*
X64247440Y-20400000D01*
X64247440Y-17400000D01*
X64198157Y-17152235D01*
X64057809Y-16942191D01*
X63847765Y-16801843D01*
X63600000Y-16752560D01*
X60600000Y-16752560D01*
X60352235Y-16801843D01*
X60142191Y-16942191D01*
X60001843Y-17152235D01*
X59952560Y-17400000D01*
X29899346Y-17400000D01*
X29409380Y-16910034D01*
X28624678Y-16585000D01*
X27775322Y-16585000D01*
X26990620Y-16910034D01*
X26390034Y-17510620D01*
X26065000Y-18295322D01*
X22710000Y-18295322D01*
X22710000Y-15710000D01*
X67290000Y-15710000D01*
X67290001Y-39290000D01*
X67290001Y-39290000D01*
G37*
X67290001Y-39290000D02*
X22710000Y-39290000D01*
X22710000Y-30595322D01*
X26065000Y-30595322D01*
X26065000Y-31444678D01*
X26390034Y-32229380D01*
X26990620Y-32829966D01*
X27775322Y-33155000D01*
X28624678Y-33155000D01*
X29409380Y-32829966D01*
X30009966Y-32229380D01*
X30335000Y-31444678D01*
X30335000Y-30650000D01*
X41202560Y-30650000D01*
X41202560Y-32350000D01*
X41251843Y-32597765D01*
X41392191Y-32807809D01*
X41602235Y-32948157D01*
X41850000Y-32997440D01*
X43550000Y-32997440D01*
X43797765Y-32948157D01*
X44007809Y-32807809D01*
X44148157Y-32597765D01*
X44157184Y-32552381D01*
X44169375Y-32570625D01*
X44660582Y-32898839D01*
X45093744Y-32985000D01*
X45386256Y-32985000D01*
X45819418Y-32898839D01*
X46310625Y-32570625D01*
X46638839Y-32079418D01*
X46754092Y-31500000D01*
X46638839Y-30920582D01*
X46458042Y-30650000D01*
X48802560Y-30650000D01*
X48802560Y-32350000D01*
X48851843Y-32597765D01*
X48992191Y-32807809D01*
X49202235Y-32948157D01*
X49450000Y-32997440D01*
X51150000Y-32997440D01*
X51397765Y-32948157D01*
X51607809Y-32807809D01*
X51748157Y-32597765D01*
X51757184Y-32552381D01*
X51769375Y-32570625D01*
X52260582Y-32898839D01*
X52693744Y-32985000D01*
X52986256Y-32985000D01*
X53419418Y-32898839D01*
X53910625Y-32570625D01*
X54238839Y-32079418D01*
X54354092Y-31500000D01*
X54238839Y-30920582D01*
X53910625Y-30429375D01*
X53419418Y-30101161D01*
X52986256Y-30015000D01*
X52693744Y-30015000D01*
X52260582Y-30101161D01*
X51769375Y-30429375D01*
X51757184Y-30447619D01*
X51748157Y-30402235D01*
X51607809Y-30192191D01*
X51397765Y-30051843D01*
X51150000Y-30002560D01*
X49450000Y-30002560D01*
X49202235Y-30051843D01*
X48992191Y-30192191D01*
X48851843Y-30402235D01*
X48802560Y-30650000D01*
X46458042Y-30650000D01*
X46310625Y-30429375D01*
X45819418Y-30101161D01*
X45386256Y-30015000D01*
X45093744Y-30015000D01*
X44660582Y-30101161D01*
X44169375Y-30429375D01*
X44157184Y-30447619D01*
X44148157Y-30402235D01*
X44007809Y-30192191D01*
X43797765Y-30051843D01*
X43550000Y-30002560D01*
X41850000Y-30002560D01*
X41602235Y-30051843D01*
X41392191Y-30192191D01*
X41251843Y-30402235D01*
X41202560Y-30650000D01*
X30335000Y-30650000D01*
X30335000Y-30595322D01*
X30009966Y-29810620D01*
X29409380Y-29210034D01*
X29094058Y-29079423D01*
X29479355Y-28694126D01*
X55065000Y-28694126D01*
X55065000Y-29105874D01*
X55222569Y-29486280D01*
X55513720Y-29777431D01*
X55894126Y-29935000D01*
X56060199Y-29935000D01*
X56809671Y-30684473D01*
X56852071Y-30747929D01*
X57103463Y-30915904D01*
X57325148Y-30960000D01*
X57325152Y-30960000D01*
X57400000Y-30974888D01*
X57474848Y-30960000D01*
X59952560Y-30960000D01*
X59952560Y-32300000D01*
X60001843Y-32547765D01*
X60142191Y-32757809D01*
X60352235Y-32898157D01*
X60600000Y-32947440D01*
X63600000Y-32947440D01*
X63847765Y-32898157D01*
X64057809Y-32757809D01*
X64198157Y-32547765D01*
X64247440Y-32300000D01*
X64247440Y-29300000D01*
X64198157Y-29052235D01*
X64057809Y-28842191D01*
X63847765Y-28701843D01*
X63600000Y-28652560D01*
X60600000Y-28652560D01*
X60352235Y-28701843D01*
X60142191Y-28842191D01*
X60001843Y-29052235D01*
X59952560Y-29300000D01*
X59952560Y-29440000D01*
X57714802Y-29440000D01*
X57135000Y-28860199D01*
X57135000Y-28694126D01*
X56977431Y-28313720D01*
X56686280Y-28022569D01*
X56305874Y-27865000D01*
X55894126Y-27865000D01*
X55513720Y-28022569D01*
X55222569Y-28313720D01*
X55065000Y-28694126D01*
X29479355Y-28694126D01*
X30513483Y-27660000D01*
X44696289Y-27660000D01*
X44813720Y-27777431D01*
X45194126Y-27935000D01*
X45605874Y-27935000D01*
X45986280Y-27777431D01*
X46277431Y-27486280D01*
X46435000Y-27105874D01*
X46435000Y-26694126D01*
X46277431Y-26313720D01*
X45986280Y-26022569D01*
X45605874Y-25865000D01*
X45194126Y-25865000D01*
X44813720Y-26022569D01*
X44696289Y-26140000D01*
X30273526Y-26140000D01*
X30198679Y-26125112D01*
X30123832Y-26140000D01*
X30123828Y-26140000D01*
X29902143Y-26184096D01*
X29902141Y-26184097D01*
X29902142Y-26184097D01*
X29714206Y-26309671D01*
X29714204Y-26309673D01*
X29650751Y-26352071D01*
X29608353Y-26415524D01*
X27715528Y-28308351D01*
X27652072Y-28350751D01*
X27609672Y-28414207D01*
X27609671Y-28414208D01*
X27484097Y-28602143D01*
X27425112Y-28898680D01*
X27440001Y-28973532D01*
X27440001Y-29023894D01*
X26990620Y-29210034D01*
X26390034Y-29810620D01*
X26065000Y-30595322D01*
X22710000Y-30595322D01*
X22710000Y-23555322D01*
X59965000Y-23555322D01*
X59965000Y-24404678D01*
X60290034Y-25189380D01*
X60890620Y-25789966D01*
X61675322Y-26115000D01*
X62524678Y-26115000D01*
X63309380Y-25789966D01*
X63909966Y-25189380D01*
X64235000Y-24404678D01*
X64235000Y-23555322D01*
X63909966Y-22770620D01*
X63309380Y-22170034D01*
X62524678Y-21845000D01*
X61675322Y-21845000D01*
X60890620Y-22170034D01*
X60290034Y-22770620D01*
X59965000Y-23555322D01*
X22710000Y-23555322D01*
X22710000Y-18295322D01*
X26065000Y-18295322D01*
X26065000Y-19144678D01*
X26390034Y-19929380D01*
X26990620Y-20529966D01*
X27775322Y-20855000D01*
X28624678Y-20855000D01*
X29409380Y-20529966D01*
X30009966Y-19929380D01*
X30335000Y-19144678D01*
X30335000Y-18295322D01*
X30009966Y-17510620D01*
X29899346Y-17400000D01*
X59952560Y-17400000D01*
X59952560Y-20400000D01*
X60001843Y-20647765D01*
X60142191Y-20857809D01*
X60352235Y-20998157D01*
X60600000Y-21047440D01*
X63600000Y-21047440D01*
X63847765Y-20998157D01*
X64057809Y-20857809D01*
X64198157Y-20647765D01*
X64247440Y-20400000D01*
X64247440Y-17400000D01*
X64198157Y-17152235D01*
X64057809Y-16942191D01*
X63847765Y-16801843D01*
X63600000Y-16752560D01*
X60600000Y-16752560D01*
X60352235Y-16801843D01*
X60142191Y-16942191D01*
X60001843Y-17152235D01*
X59952560Y-17400000D01*
X29899346Y-17400000D01*
X29409380Y-16910034D01*
X28624678Y-16585000D01*
X27775322Y-16585000D01*
X26990620Y-16910034D01*
X26390034Y-17510620D01*
X26065000Y-18295322D01*
X22710000Y-18295322D01*
X22710000Y-15710000D01*
X67290000Y-15710000D01*
X67290001Y-39290000D01*
G04 #@! TD*
M02*
