G04 #@! TF.GenerationSoftware,KiCad,Pcbnew,(5.0.2)-1*
G04 #@! TF.CreationDate,2019-07-07T13:50:55+05:30*
G04 #@! TF.ProjectId,tps61500evm,74707336-3135-4303-9065-766d2e6b6963,rev?*
G04 #@! TF.SameCoordinates,Original*
G04 #@! TF.FileFunction,Paste,Top*
G04 #@! TF.FilePolarity,Positive*
%FSLAX46Y46*%
G04 Gerber Fmt 4.6, Leading zero omitted, Abs format (unit mm)*
G04 Created by KiCad (PCBNEW (5.0.2)-1) date 07/07/19 13:50:55*
%MOMM*%
%LPD*%
G01*
G04 APERTURE LIST*
%ADD10R,1.473200X0.355600*%
%ADD11R,2.311400X2.463800*%
%ADD12R,2.500000X3.300000*%
%ADD13C,0.100000*%
%ADD14C,0.975000*%
%ADD15R,2.900000X5.400000*%
G04 APERTURE END LIST*
D10*
G04 #@! TO.C,U1*
X48679000Y-24044200D03*
X48679000Y-24704600D03*
X48679000Y-25339600D03*
X48679000Y-26000000D03*
X48679000Y-26660400D03*
X48679000Y-27295400D03*
X48679000Y-27955800D03*
X54521000Y-27955800D03*
X54521000Y-27295400D03*
X54521000Y-26660400D03*
X54521000Y-26000000D03*
X54521000Y-25339600D03*
X54521000Y-24704600D03*
X54521000Y-24044200D03*
D11*
X51600000Y-26000000D03*
G04 #@! TD*
D12*
G04 #@! TO.C,D1*
X55590000Y-19080000D03*
X48790000Y-19080000D03*
G04 #@! TD*
D13*
G04 #@! TO.C,C1*
G36*
X35540142Y-34086174D02*
X35563803Y-34089684D01*
X35587007Y-34095496D01*
X35609529Y-34103554D01*
X35631153Y-34113782D01*
X35651670Y-34126079D01*
X35670883Y-34140329D01*
X35688607Y-34156393D01*
X35704671Y-34174117D01*
X35718921Y-34193330D01*
X35731218Y-34213847D01*
X35741446Y-34235471D01*
X35749504Y-34257993D01*
X35755316Y-34281197D01*
X35758826Y-34304858D01*
X35760000Y-34328750D01*
X35760000Y-34816250D01*
X35758826Y-34840142D01*
X35755316Y-34863803D01*
X35749504Y-34887007D01*
X35741446Y-34909529D01*
X35731218Y-34931153D01*
X35718921Y-34951670D01*
X35704671Y-34970883D01*
X35688607Y-34988607D01*
X35670883Y-35004671D01*
X35651670Y-35018921D01*
X35631153Y-35031218D01*
X35609529Y-35041446D01*
X35587007Y-35049504D01*
X35563803Y-35055316D01*
X35540142Y-35058826D01*
X35516250Y-35060000D01*
X34603750Y-35060000D01*
X34579858Y-35058826D01*
X34556197Y-35055316D01*
X34532993Y-35049504D01*
X34510471Y-35041446D01*
X34488847Y-35031218D01*
X34468330Y-35018921D01*
X34449117Y-35004671D01*
X34431393Y-34988607D01*
X34415329Y-34970883D01*
X34401079Y-34951670D01*
X34388782Y-34931153D01*
X34378554Y-34909529D01*
X34370496Y-34887007D01*
X34364684Y-34863803D01*
X34361174Y-34840142D01*
X34360000Y-34816250D01*
X34360000Y-34328750D01*
X34361174Y-34304858D01*
X34364684Y-34281197D01*
X34370496Y-34257993D01*
X34378554Y-34235471D01*
X34388782Y-34213847D01*
X34401079Y-34193330D01*
X34415329Y-34174117D01*
X34431393Y-34156393D01*
X34449117Y-34140329D01*
X34468330Y-34126079D01*
X34488847Y-34113782D01*
X34510471Y-34103554D01*
X34532993Y-34095496D01*
X34556197Y-34089684D01*
X34579858Y-34086174D01*
X34603750Y-34085000D01*
X35516250Y-34085000D01*
X35540142Y-34086174D01*
X35540142Y-34086174D01*
G37*
D14*
X35060000Y-34572500D03*
D13*
G36*
X35540142Y-35961174D02*
X35563803Y-35964684D01*
X35587007Y-35970496D01*
X35609529Y-35978554D01*
X35631153Y-35988782D01*
X35651670Y-36001079D01*
X35670883Y-36015329D01*
X35688607Y-36031393D01*
X35704671Y-36049117D01*
X35718921Y-36068330D01*
X35731218Y-36088847D01*
X35741446Y-36110471D01*
X35749504Y-36132993D01*
X35755316Y-36156197D01*
X35758826Y-36179858D01*
X35760000Y-36203750D01*
X35760000Y-36691250D01*
X35758826Y-36715142D01*
X35755316Y-36738803D01*
X35749504Y-36762007D01*
X35741446Y-36784529D01*
X35731218Y-36806153D01*
X35718921Y-36826670D01*
X35704671Y-36845883D01*
X35688607Y-36863607D01*
X35670883Y-36879671D01*
X35651670Y-36893921D01*
X35631153Y-36906218D01*
X35609529Y-36916446D01*
X35587007Y-36924504D01*
X35563803Y-36930316D01*
X35540142Y-36933826D01*
X35516250Y-36935000D01*
X34603750Y-36935000D01*
X34579858Y-36933826D01*
X34556197Y-36930316D01*
X34532993Y-36924504D01*
X34510471Y-36916446D01*
X34488847Y-36906218D01*
X34468330Y-36893921D01*
X34449117Y-36879671D01*
X34431393Y-36863607D01*
X34415329Y-36845883D01*
X34401079Y-36826670D01*
X34388782Y-36806153D01*
X34378554Y-36784529D01*
X34370496Y-36762007D01*
X34364684Y-36738803D01*
X34361174Y-36715142D01*
X34360000Y-36691250D01*
X34360000Y-36203750D01*
X34361174Y-36179858D01*
X34364684Y-36156197D01*
X34370496Y-36132993D01*
X34378554Y-36110471D01*
X34388782Y-36088847D01*
X34401079Y-36068330D01*
X34415329Y-36049117D01*
X34431393Y-36031393D01*
X34449117Y-36015329D01*
X34468330Y-36001079D01*
X34488847Y-35988782D01*
X34510471Y-35978554D01*
X34532993Y-35970496D01*
X34556197Y-35964684D01*
X34579858Y-35961174D01*
X34603750Y-35960000D01*
X35516250Y-35960000D01*
X35540142Y-35961174D01*
X35540142Y-35961174D01*
G37*
D14*
X35060000Y-36447500D03*
G04 #@! TD*
D13*
G04 #@! TO.C,R3*
G36*
X45780142Y-35951174D02*
X45803803Y-35954684D01*
X45827007Y-35960496D01*
X45849529Y-35968554D01*
X45871153Y-35978782D01*
X45891670Y-35991079D01*
X45910883Y-36005329D01*
X45928607Y-36021393D01*
X45944671Y-36039117D01*
X45958921Y-36058330D01*
X45971218Y-36078847D01*
X45981446Y-36100471D01*
X45989504Y-36122993D01*
X45995316Y-36146197D01*
X45998826Y-36169858D01*
X46000000Y-36193750D01*
X46000000Y-36681250D01*
X45998826Y-36705142D01*
X45995316Y-36728803D01*
X45989504Y-36752007D01*
X45981446Y-36774529D01*
X45971218Y-36796153D01*
X45958921Y-36816670D01*
X45944671Y-36835883D01*
X45928607Y-36853607D01*
X45910883Y-36869671D01*
X45891670Y-36883921D01*
X45871153Y-36896218D01*
X45849529Y-36906446D01*
X45827007Y-36914504D01*
X45803803Y-36920316D01*
X45780142Y-36923826D01*
X45756250Y-36925000D01*
X44843750Y-36925000D01*
X44819858Y-36923826D01*
X44796197Y-36920316D01*
X44772993Y-36914504D01*
X44750471Y-36906446D01*
X44728847Y-36896218D01*
X44708330Y-36883921D01*
X44689117Y-36869671D01*
X44671393Y-36853607D01*
X44655329Y-36835883D01*
X44641079Y-36816670D01*
X44628782Y-36796153D01*
X44618554Y-36774529D01*
X44610496Y-36752007D01*
X44604684Y-36728803D01*
X44601174Y-36705142D01*
X44600000Y-36681250D01*
X44600000Y-36193750D01*
X44601174Y-36169858D01*
X44604684Y-36146197D01*
X44610496Y-36122993D01*
X44618554Y-36100471D01*
X44628782Y-36078847D01*
X44641079Y-36058330D01*
X44655329Y-36039117D01*
X44671393Y-36021393D01*
X44689117Y-36005329D01*
X44708330Y-35991079D01*
X44728847Y-35978782D01*
X44750471Y-35968554D01*
X44772993Y-35960496D01*
X44796197Y-35954684D01*
X44819858Y-35951174D01*
X44843750Y-35950000D01*
X45756250Y-35950000D01*
X45780142Y-35951174D01*
X45780142Y-35951174D01*
G37*
D14*
X45300000Y-36437500D03*
D13*
G36*
X45780142Y-34076174D02*
X45803803Y-34079684D01*
X45827007Y-34085496D01*
X45849529Y-34093554D01*
X45871153Y-34103782D01*
X45891670Y-34116079D01*
X45910883Y-34130329D01*
X45928607Y-34146393D01*
X45944671Y-34164117D01*
X45958921Y-34183330D01*
X45971218Y-34203847D01*
X45981446Y-34225471D01*
X45989504Y-34247993D01*
X45995316Y-34271197D01*
X45998826Y-34294858D01*
X46000000Y-34318750D01*
X46000000Y-34806250D01*
X45998826Y-34830142D01*
X45995316Y-34853803D01*
X45989504Y-34877007D01*
X45981446Y-34899529D01*
X45971218Y-34921153D01*
X45958921Y-34941670D01*
X45944671Y-34960883D01*
X45928607Y-34978607D01*
X45910883Y-34994671D01*
X45891670Y-35008921D01*
X45871153Y-35021218D01*
X45849529Y-35031446D01*
X45827007Y-35039504D01*
X45803803Y-35045316D01*
X45780142Y-35048826D01*
X45756250Y-35050000D01*
X44843750Y-35050000D01*
X44819858Y-35048826D01*
X44796197Y-35045316D01*
X44772993Y-35039504D01*
X44750471Y-35031446D01*
X44728847Y-35021218D01*
X44708330Y-35008921D01*
X44689117Y-34994671D01*
X44671393Y-34978607D01*
X44655329Y-34960883D01*
X44641079Y-34941670D01*
X44628782Y-34921153D01*
X44618554Y-34899529D01*
X44610496Y-34877007D01*
X44604684Y-34853803D01*
X44601174Y-34830142D01*
X44600000Y-34806250D01*
X44600000Y-34318750D01*
X44601174Y-34294858D01*
X44604684Y-34271197D01*
X44610496Y-34247993D01*
X44618554Y-34225471D01*
X44628782Y-34203847D01*
X44641079Y-34183330D01*
X44655329Y-34164117D01*
X44671393Y-34146393D01*
X44689117Y-34130329D01*
X44708330Y-34116079D01*
X44728847Y-34103782D01*
X44750471Y-34093554D01*
X44772993Y-34085496D01*
X44796197Y-34079684D01*
X44819858Y-34076174D01*
X44843750Y-34075000D01*
X45756250Y-34075000D01*
X45780142Y-34076174D01*
X45780142Y-34076174D01*
G37*
D14*
X45300000Y-34562500D03*
G04 #@! TD*
D13*
G04 #@! TO.C,R2*
G36*
X50830142Y-34076174D02*
X50853803Y-34079684D01*
X50877007Y-34085496D01*
X50899529Y-34093554D01*
X50921153Y-34103782D01*
X50941670Y-34116079D01*
X50960883Y-34130329D01*
X50978607Y-34146393D01*
X50994671Y-34164117D01*
X51008921Y-34183330D01*
X51021218Y-34203847D01*
X51031446Y-34225471D01*
X51039504Y-34247993D01*
X51045316Y-34271197D01*
X51048826Y-34294858D01*
X51050000Y-34318750D01*
X51050000Y-34806250D01*
X51048826Y-34830142D01*
X51045316Y-34853803D01*
X51039504Y-34877007D01*
X51031446Y-34899529D01*
X51021218Y-34921153D01*
X51008921Y-34941670D01*
X50994671Y-34960883D01*
X50978607Y-34978607D01*
X50960883Y-34994671D01*
X50941670Y-35008921D01*
X50921153Y-35021218D01*
X50899529Y-35031446D01*
X50877007Y-35039504D01*
X50853803Y-35045316D01*
X50830142Y-35048826D01*
X50806250Y-35050000D01*
X49893750Y-35050000D01*
X49869858Y-35048826D01*
X49846197Y-35045316D01*
X49822993Y-35039504D01*
X49800471Y-35031446D01*
X49778847Y-35021218D01*
X49758330Y-35008921D01*
X49739117Y-34994671D01*
X49721393Y-34978607D01*
X49705329Y-34960883D01*
X49691079Y-34941670D01*
X49678782Y-34921153D01*
X49668554Y-34899529D01*
X49660496Y-34877007D01*
X49654684Y-34853803D01*
X49651174Y-34830142D01*
X49650000Y-34806250D01*
X49650000Y-34318750D01*
X49651174Y-34294858D01*
X49654684Y-34271197D01*
X49660496Y-34247993D01*
X49668554Y-34225471D01*
X49678782Y-34203847D01*
X49691079Y-34183330D01*
X49705329Y-34164117D01*
X49721393Y-34146393D01*
X49739117Y-34130329D01*
X49758330Y-34116079D01*
X49778847Y-34103782D01*
X49800471Y-34093554D01*
X49822993Y-34085496D01*
X49846197Y-34079684D01*
X49869858Y-34076174D01*
X49893750Y-34075000D01*
X50806250Y-34075000D01*
X50830142Y-34076174D01*
X50830142Y-34076174D01*
G37*
D14*
X50350000Y-34562500D03*
D13*
G36*
X50830142Y-35951174D02*
X50853803Y-35954684D01*
X50877007Y-35960496D01*
X50899529Y-35968554D01*
X50921153Y-35978782D01*
X50941670Y-35991079D01*
X50960883Y-36005329D01*
X50978607Y-36021393D01*
X50994671Y-36039117D01*
X51008921Y-36058330D01*
X51021218Y-36078847D01*
X51031446Y-36100471D01*
X51039504Y-36122993D01*
X51045316Y-36146197D01*
X51048826Y-36169858D01*
X51050000Y-36193750D01*
X51050000Y-36681250D01*
X51048826Y-36705142D01*
X51045316Y-36728803D01*
X51039504Y-36752007D01*
X51031446Y-36774529D01*
X51021218Y-36796153D01*
X51008921Y-36816670D01*
X50994671Y-36835883D01*
X50978607Y-36853607D01*
X50960883Y-36869671D01*
X50941670Y-36883921D01*
X50921153Y-36896218D01*
X50899529Y-36906446D01*
X50877007Y-36914504D01*
X50853803Y-36920316D01*
X50830142Y-36923826D01*
X50806250Y-36925000D01*
X49893750Y-36925000D01*
X49869858Y-36923826D01*
X49846197Y-36920316D01*
X49822993Y-36914504D01*
X49800471Y-36906446D01*
X49778847Y-36896218D01*
X49758330Y-36883921D01*
X49739117Y-36869671D01*
X49721393Y-36853607D01*
X49705329Y-36835883D01*
X49691079Y-36816670D01*
X49678782Y-36796153D01*
X49668554Y-36774529D01*
X49660496Y-36752007D01*
X49654684Y-36728803D01*
X49651174Y-36705142D01*
X49650000Y-36681250D01*
X49650000Y-36193750D01*
X49651174Y-36169858D01*
X49654684Y-36146197D01*
X49660496Y-36122993D01*
X49668554Y-36100471D01*
X49678782Y-36078847D01*
X49691079Y-36058330D01*
X49705329Y-36039117D01*
X49721393Y-36021393D01*
X49739117Y-36005329D01*
X49758330Y-35991079D01*
X49778847Y-35978782D01*
X49800471Y-35968554D01*
X49822993Y-35960496D01*
X49846197Y-35954684D01*
X49869858Y-35951174D01*
X49893750Y-35950000D01*
X50806250Y-35950000D01*
X50830142Y-35951174D01*
X50830142Y-35951174D01*
G37*
D14*
X50350000Y-36437500D03*
G04 #@! TD*
D13*
G04 #@! TO.C,C2*
G36*
X53380142Y-35951174D02*
X53403803Y-35954684D01*
X53427007Y-35960496D01*
X53449529Y-35968554D01*
X53471153Y-35978782D01*
X53491670Y-35991079D01*
X53510883Y-36005329D01*
X53528607Y-36021393D01*
X53544671Y-36039117D01*
X53558921Y-36058330D01*
X53571218Y-36078847D01*
X53581446Y-36100471D01*
X53589504Y-36122993D01*
X53595316Y-36146197D01*
X53598826Y-36169858D01*
X53600000Y-36193750D01*
X53600000Y-36681250D01*
X53598826Y-36705142D01*
X53595316Y-36728803D01*
X53589504Y-36752007D01*
X53581446Y-36774529D01*
X53571218Y-36796153D01*
X53558921Y-36816670D01*
X53544671Y-36835883D01*
X53528607Y-36853607D01*
X53510883Y-36869671D01*
X53491670Y-36883921D01*
X53471153Y-36896218D01*
X53449529Y-36906446D01*
X53427007Y-36914504D01*
X53403803Y-36920316D01*
X53380142Y-36923826D01*
X53356250Y-36925000D01*
X52443750Y-36925000D01*
X52419858Y-36923826D01*
X52396197Y-36920316D01*
X52372993Y-36914504D01*
X52350471Y-36906446D01*
X52328847Y-36896218D01*
X52308330Y-36883921D01*
X52289117Y-36869671D01*
X52271393Y-36853607D01*
X52255329Y-36835883D01*
X52241079Y-36816670D01*
X52228782Y-36796153D01*
X52218554Y-36774529D01*
X52210496Y-36752007D01*
X52204684Y-36728803D01*
X52201174Y-36705142D01*
X52200000Y-36681250D01*
X52200000Y-36193750D01*
X52201174Y-36169858D01*
X52204684Y-36146197D01*
X52210496Y-36122993D01*
X52218554Y-36100471D01*
X52228782Y-36078847D01*
X52241079Y-36058330D01*
X52255329Y-36039117D01*
X52271393Y-36021393D01*
X52289117Y-36005329D01*
X52308330Y-35991079D01*
X52328847Y-35978782D01*
X52350471Y-35968554D01*
X52372993Y-35960496D01*
X52396197Y-35954684D01*
X52419858Y-35951174D01*
X52443750Y-35950000D01*
X53356250Y-35950000D01*
X53380142Y-35951174D01*
X53380142Y-35951174D01*
G37*
D14*
X52900000Y-36437500D03*
D13*
G36*
X53380142Y-34076174D02*
X53403803Y-34079684D01*
X53427007Y-34085496D01*
X53449529Y-34093554D01*
X53471153Y-34103782D01*
X53491670Y-34116079D01*
X53510883Y-34130329D01*
X53528607Y-34146393D01*
X53544671Y-34164117D01*
X53558921Y-34183330D01*
X53571218Y-34203847D01*
X53581446Y-34225471D01*
X53589504Y-34247993D01*
X53595316Y-34271197D01*
X53598826Y-34294858D01*
X53600000Y-34318750D01*
X53600000Y-34806250D01*
X53598826Y-34830142D01*
X53595316Y-34853803D01*
X53589504Y-34877007D01*
X53581446Y-34899529D01*
X53571218Y-34921153D01*
X53558921Y-34941670D01*
X53544671Y-34960883D01*
X53528607Y-34978607D01*
X53510883Y-34994671D01*
X53491670Y-35008921D01*
X53471153Y-35021218D01*
X53449529Y-35031446D01*
X53427007Y-35039504D01*
X53403803Y-35045316D01*
X53380142Y-35048826D01*
X53356250Y-35050000D01*
X52443750Y-35050000D01*
X52419858Y-35048826D01*
X52396197Y-35045316D01*
X52372993Y-35039504D01*
X52350471Y-35031446D01*
X52328847Y-35021218D01*
X52308330Y-35008921D01*
X52289117Y-34994671D01*
X52271393Y-34978607D01*
X52255329Y-34960883D01*
X52241079Y-34941670D01*
X52228782Y-34921153D01*
X52218554Y-34899529D01*
X52210496Y-34877007D01*
X52204684Y-34853803D01*
X52201174Y-34830142D01*
X52200000Y-34806250D01*
X52200000Y-34318750D01*
X52201174Y-34294858D01*
X52204684Y-34271197D01*
X52210496Y-34247993D01*
X52218554Y-34225471D01*
X52228782Y-34203847D01*
X52241079Y-34183330D01*
X52255329Y-34164117D01*
X52271393Y-34146393D01*
X52289117Y-34130329D01*
X52308330Y-34116079D01*
X52328847Y-34103782D01*
X52350471Y-34093554D01*
X52372993Y-34085496D01*
X52396197Y-34079684D01*
X52419858Y-34076174D01*
X52443750Y-34075000D01*
X53356250Y-34075000D01*
X53380142Y-34076174D01*
X53380142Y-34076174D01*
G37*
D14*
X52900000Y-34562500D03*
G04 #@! TD*
D13*
G04 #@! TO.C,C3*
G36*
X40640142Y-34086174D02*
X40663803Y-34089684D01*
X40687007Y-34095496D01*
X40709529Y-34103554D01*
X40731153Y-34113782D01*
X40751670Y-34126079D01*
X40770883Y-34140329D01*
X40788607Y-34156393D01*
X40804671Y-34174117D01*
X40818921Y-34193330D01*
X40831218Y-34213847D01*
X40841446Y-34235471D01*
X40849504Y-34257993D01*
X40855316Y-34281197D01*
X40858826Y-34304858D01*
X40860000Y-34328750D01*
X40860000Y-34816250D01*
X40858826Y-34840142D01*
X40855316Y-34863803D01*
X40849504Y-34887007D01*
X40841446Y-34909529D01*
X40831218Y-34931153D01*
X40818921Y-34951670D01*
X40804671Y-34970883D01*
X40788607Y-34988607D01*
X40770883Y-35004671D01*
X40751670Y-35018921D01*
X40731153Y-35031218D01*
X40709529Y-35041446D01*
X40687007Y-35049504D01*
X40663803Y-35055316D01*
X40640142Y-35058826D01*
X40616250Y-35060000D01*
X39703750Y-35060000D01*
X39679858Y-35058826D01*
X39656197Y-35055316D01*
X39632993Y-35049504D01*
X39610471Y-35041446D01*
X39588847Y-35031218D01*
X39568330Y-35018921D01*
X39549117Y-35004671D01*
X39531393Y-34988607D01*
X39515329Y-34970883D01*
X39501079Y-34951670D01*
X39488782Y-34931153D01*
X39478554Y-34909529D01*
X39470496Y-34887007D01*
X39464684Y-34863803D01*
X39461174Y-34840142D01*
X39460000Y-34816250D01*
X39460000Y-34328750D01*
X39461174Y-34304858D01*
X39464684Y-34281197D01*
X39470496Y-34257993D01*
X39478554Y-34235471D01*
X39488782Y-34213847D01*
X39501079Y-34193330D01*
X39515329Y-34174117D01*
X39531393Y-34156393D01*
X39549117Y-34140329D01*
X39568330Y-34126079D01*
X39588847Y-34113782D01*
X39610471Y-34103554D01*
X39632993Y-34095496D01*
X39656197Y-34089684D01*
X39679858Y-34086174D01*
X39703750Y-34085000D01*
X40616250Y-34085000D01*
X40640142Y-34086174D01*
X40640142Y-34086174D01*
G37*
D14*
X40160000Y-34572500D03*
D13*
G36*
X40640142Y-35961174D02*
X40663803Y-35964684D01*
X40687007Y-35970496D01*
X40709529Y-35978554D01*
X40731153Y-35988782D01*
X40751670Y-36001079D01*
X40770883Y-36015329D01*
X40788607Y-36031393D01*
X40804671Y-36049117D01*
X40818921Y-36068330D01*
X40831218Y-36088847D01*
X40841446Y-36110471D01*
X40849504Y-36132993D01*
X40855316Y-36156197D01*
X40858826Y-36179858D01*
X40860000Y-36203750D01*
X40860000Y-36691250D01*
X40858826Y-36715142D01*
X40855316Y-36738803D01*
X40849504Y-36762007D01*
X40841446Y-36784529D01*
X40831218Y-36806153D01*
X40818921Y-36826670D01*
X40804671Y-36845883D01*
X40788607Y-36863607D01*
X40770883Y-36879671D01*
X40751670Y-36893921D01*
X40731153Y-36906218D01*
X40709529Y-36916446D01*
X40687007Y-36924504D01*
X40663803Y-36930316D01*
X40640142Y-36933826D01*
X40616250Y-36935000D01*
X39703750Y-36935000D01*
X39679858Y-36933826D01*
X39656197Y-36930316D01*
X39632993Y-36924504D01*
X39610471Y-36916446D01*
X39588847Y-36906218D01*
X39568330Y-36893921D01*
X39549117Y-36879671D01*
X39531393Y-36863607D01*
X39515329Y-36845883D01*
X39501079Y-36826670D01*
X39488782Y-36806153D01*
X39478554Y-36784529D01*
X39470496Y-36762007D01*
X39464684Y-36738803D01*
X39461174Y-36715142D01*
X39460000Y-36691250D01*
X39460000Y-36203750D01*
X39461174Y-36179858D01*
X39464684Y-36156197D01*
X39470496Y-36132993D01*
X39478554Y-36110471D01*
X39488782Y-36088847D01*
X39501079Y-36068330D01*
X39515329Y-36049117D01*
X39531393Y-36031393D01*
X39549117Y-36015329D01*
X39568330Y-36001079D01*
X39588847Y-35988782D01*
X39610471Y-35978554D01*
X39632993Y-35970496D01*
X39656197Y-35964684D01*
X39679858Y-35961174D01*
X39703750Y-35960000D01*
X40616250Y-35960000D01*
X40640142Y-35961174D01*
X40640142Y-35961174D01*
G37*
D14*
X40160000Y-36447500D03*
G04 #@! TD*
D13*
G04 #@! TO.C,C4*
G36*
X48280142Y-35961174D02*
X48303803Y-35964684D01*
X48327007Y-35970496D01*
X48349529Y-35978554D01*
X48371153Y-35988782D01*
X48391670Y-36001079D01*
X48410883Y-36015329D01*
X48428607Y-36031393D01*
X48444671Y-36049117D01*
X48458921Y-36068330D01*
X48471218Y-36088847D01*
X48481446Y-36110471D01*
X48489504Y-36132993D01*
X48495316Y-36156197D01*
X48498826Y-36179858D01*
X48500000Y-36203750D01*
X48500000Y-36691250D01*
X48498826Y-36715142D01*
X48495316Y-36738803D01*
X48489504Y-36762007D01*
X48481446Y-36784529D01*
X48471218Y-36806153D01*
X48458921Y-36826670D01*
X48444671Y-36845883D01*
X48428607Y-36863607D01*
X48410883Y-36879671D01*
X48391670Y-36893921D01*
X48371153Y-36906218D01*
X48349529Y-36916446D01*
X48327007Y-36924504D01*
X48303803Y-36930316D01*
X48280142Y-36933826D01*
X48256250Y-36935000D01*
X47343750Y-36935000D01*
X47319858Y-36933826D01*
X47296197Y-36930316D01*
X47272993Y-36924504D01*
X47250471Y-36916446D01*
X47228847Y-36906218D01*
X47208330Y-36893921D01*
X47189117Y-36879671D01*
X47171393Y-36863607D01*
X47155329Y-36845883D01*
X47141079Y-36826670D01*
X47128782Y-36806153D01*
X47118554Y-36784529D01*
X47110496Y-36762007D01*
X47104684Y-36738803D01*
X47101174Y-36715142D01*
X47100000Y-36691250D01*
X47100000Y-36203750D01*
X47101174Y-36179858D01*
X47104684Y-36156197D01*
X47110496Y-36132993D01*
X47118554Y-36110471D01*
X47128782Y-36088847D01*
X47141079Y-36068330D01*
X47155329Y-36049117D01*
X47171393Y-36031393D01*
X47189117Y-36015329D01*
X47208330Y-36001079D01*
X47228847Y-35988782D01*
X47250471Y-35978554D01*
X47272993Y-35970496D01*
X47296197Y-35964684D01*
X47319858Y-35961174D01*
X47343750Y-35960000D01*
X48256250Y-35960000D01*
X48280142Y-35961174D01*
X48280142Y-35961174D01*
G37*
D14*
X47800000Y-36447500D03*
D13*
G36*
X48280142Y-34086174D02*
X48303803Y-34089684D01*
X48327007Y-34095496D01*
X48349529Y-34103554D01*
X48371153Y-34113782D01*
X48391670Y-34126079D01*
X48410883Y-34140329D01*
X48428607Y-34156393D01*
X48444671Y-34174117D01*
X48458921Y-34193330D01*
X48471218Y-34213847D01*
X48481446Y-34235471D01*
X48489504Y-34257993D01*
X48495316Y-34281197D01*
X48498826Y-34304858D01*
X48500000Y-34328750D01*
X48500000Y-34816250D01*
X48498826Y-34840142D01*
X48495316Y-34863803D01*
X48489504Y-34887007D01*
X48481446Y-34909529D01*
X48471218Y-34931153D01*
X48458921Y-34951670D01*
X48444671Y-34970883D01*
X48428607Y-34988607D01*
X48410883Y-35004671D01*
X48391670Y-35018921D01*
X48371153Y-35031218D01*
X48349529Y-35041446D01*
X48327007Y-35049504D01*
X48303803Y-35055316D01*
X48280142Y-35058826D01*
X48256250Y-35060000D01*
X47343750Y-35060000D01*
X47319858Y-35058826D01*
X47296197Y-35055316D01*
X47272993Y-35049504D01*
X47250471Y-35041446D01*
X47228847Y-35031218D01*
X47208330Y-35018921D01*
X47189117Y-35004671D01*
X47171393Y-34988607D01*
X47155329Y-34970883D01*
X47141079Y-34951670D01*
X47128782Y-34931153D01*
X47118554Y-34909529D01*
X47110496Y-34887007D01*
X47104684Y-34863803D01*
X47101174Y-34840142D01*
X47100000Y-34816250D01*
X47100000Y-34328750D01*
X47101174Y-34304858D01*
X47104684Y-34281197D01*
X47110496Y-34257993D01*
X47118554Y-34235471D01*
X47128782Y-34213847D01*
X47141079Y-34193330D01*
X47155329Y-34174117D01*
X47171393Y-34156393D01*
X47189117Y-34140329D01*
X47208330Y-34126079D01*
X47228847Y-34113782D01*
X47250471Y-34103554D01*
X47272993Y-34095496D01*
X47296197Y-34089684D01*
X47319858Y-34086174D01*
X47343750Y-34085000D01*
X48256250Y-34085000D01*
X48280142Y-34086174D01*
X48280142Y-34086174D01*
G37*
D14*
X47800000Y-34572500D03*
G04 #@! TD*
D13*
G04 #@! TO.C,C5*
G36*
X43190142Y-34086174D02*
X43213803Y-34089684D01*
X43237007Y-34095496D01*
X43259529Y-34103554D01*
X43281153Y-34113782D01*
X43301670Y-34126079D01*
X43320883Y-34140329D01*
X43338607Y-34156393D01*
X43354671Y-34174117D01*
X43368921Y-34193330D01*
X43381218Y-34213847D01*
X43391446Y-34235471D01*
X43399504Y-34257993D01*
X43405316Y-34281197D01*
X43408826Y-34304858D01*
X43410000Y-34328750D01*
X43410000Y-34816250D01*
X43408826Y-34840142D01*
X43405316Y-34863803D01*
X43399504Y-34887007D01*
X43391446Y-34909529D01*
X43381218Y-34931153D01*
X43368921Y-34951670D01*
X43354671Y-34970883D01*
X43338607Y-34988607D01*
X43320883Y-35004671D01*
X43301670Y-35018921D01*
X43281153Y-35031218D01*
X43259529Y-35041446D01*
X43237007Y-35049504D01*
X43213803Y-35055316D01*
X43190142Y-35058826D01*
X43166250Y-35060000D01*
X42253750Y-35060000D01*
X42229858Y-35058826D01*
X42206197Y-35055316D01*
X42182993Y-35049504D01*
X42160471Y-35041446D01*
X42138847Y-35031218D01*
X42118330Y-35018921D01*
X42099117Y-35004671D01*
X42081393Y-34988607D01*
X42065329Y-34970883D01*
X42051079Y-34951670D01*
X42038782Y-34931153D01*
X42028554Y-34909529D01*
X42020496Y-34887007D01*
X42014684Y-34863803D01*
X42011174Y-34840142D01*
X42010000Y-34816250D01*
X42010000Y-34328750D01*
X42011174Y-34304858D01*
X42014684Y-34281197D01*
X42020496Y-34257993D01*
X42028554Y-34235471D01*
X42038782Y-34213847D01*
X42051079Y-34193330D01*
X42065329Y-34174117D01*
X42081393Y-34156393D01*
X42099117Y-34140329D01*
X42118330Y-34126079D01*
X42138847Y-34113782D01*
X42160471Y-34103554D01*
X42182993Y-34095496D01*
X42206197Y-34089684D01*
X42229858Y-34086174D01*
X42253750Y-34085000D01*
X43166250Y-34085000D01*
X43190142Y-34086174D01*
X43190142Y-34086174D01*
G37*
D14*
X42710000Y-34572500D03*
D13*
G36*
X43190142Y-35961174D02*
X43213803Y-35964684D01*
X43237007Y-35970496D01*
X43259529Y-35978554D01*
X43281153Y-35988782D01*
X43301670Y-36001079D01*
X43320883Y-36015329D01*
X43338607Y-36031393D01*
X43354671Y-36049117D01*
X43368921Y-36068330D01*
X43381218Y-36088847D01*
X43391446Y-36110471D01*
X43399504Y-36132993D01*
X43405316Y-36156197D01*
X43408826Y-36179858D01*
X43410000Y-36203750D01*
X43410000Y-36691250D01*
X43408826Y-36715142D01*
X43405316Y-36738803D01*
X43399504Y-36762007D01*
X43391446Y-36784529D01*
X43381218Y-36806153D01*
X43368921Y-36826670D01*
X43354671Y-36845883D01*
X43338607Y-36863607D01*
X43320883Y-36879671D01*
X43301670Y-36893921D01*
X43281153Y-36906218D01*
X43259529Y-36916446D01*
X43237007Y-36924504D01*
X43213803Y-36930316D01*
X43190142Y-36933826D01*
X43166250Y-36935000D01*
X42253750Y-36935000D01*
X42229858Y-36933826D01*
X42206197Y-36930316D01*
X42182993Y-36924504D01*
X42160471Y-36916446D01*
X42138847Y-36906218D01*
X42118330Y-36893921D01*
X42099117Y-36879671D01*
X42081393Y-36863607D01*
X42065329Y-36845883D01*
X42051079Y-36826670D01*
X42038782Y-36806153D01*
X42028554Y-36784529D01*
X42020496Y-36762007D01*
X42014684Y-36738803D01*
X42011174Y-36715142D01*
X42010000Y-36691250D01*
X42010000Y-36203750D01*
X42011174Y-36179858D01*
X42014684Y-36156197D01*
X42020496Y-36132993D01*
X42028554Y-36110471D01*
X42038782Y-36088847D01*
X42051079Y-36068330D01*
X42065329Y-36049117D01*
X42081393Y-36031393D01*
X42099117Y-36015329D01*
X42118330Y-36001079D01*
X42138847Y-35988782D01*
X42160471Y-35978554D01*
X42182993Y-35970496D01*
X42206197Y-35964684D01*
X42229858Y-35961174D01*
X42253750Y-35960000D01*
X43166250Y-35960000D01*
X43190142Y-35961174D01*
X43190142Y-35961174D01*
G37*
D14*
X42710000Y-36447500D03*
G04 #@! TD*
D13*
G04 #@! TO.C,C7*
G36*
X55880142Y-35951174D02*
X55903803Y-35954684D01*
X55927007Y-35960496D01*
X55949529Y-35968554D01*
X55971153Y-35978782D01*
X55991670Y-35991079D01*
X56010883Y-36005329D01*
X56028607Y-36021393D01*
X56044671Y-36039117D01*
X56058921Y-36058330D01*
X56071218Y-36078847D01*
X56081446Y-36100471D01*
X56089504Y-36122993D01*
X56095316Y-36146197D01*
X56098826Y-36169858D01*
X56100000Y-36193750D01*
X56100000Y-36681250D01*
X56098826Y-36705142D01*
X56095316Y-36728803D01*
X56089504Y-36752007D01*
X56081446Y-36774529D01*
X56071218Y-36796153D01*
X56058921Y-36816670D01*
X56044671Y-36835883D01*
X56028607Y-36853607D01*
X56010883Y-36869671D01*
X55991670Y-36883921D01*
X55971153Y-36896218D01*
X55949529Y-36906446D01*
X55927007Y-36914504D01*
X55903803Y-36920316D01*
X55880142Y-36923826D01*
X55856250Y-36925000D01*
X54943750Y-36925000D01*
X54919858Y-36923826D01*
X54896197Y-36920316D01*
X54872993Y-36914504D01*
X54850471Y-36906446D01*
X54828847Y-36896218D01*
X54808330Y-36883921D01*
X54789117Y-36869671D01*
X54771393Y-36853607D01*
X54755329Y-36835883D01*
X54741079Y-36816670D01*
X54728782Y-36796153D01*
X54718554Y-36774529D01*
X54710496Y-36752007D01*
X54704684Y-36728803D01*
X54701174Y-36705142D01*
X54700000Y-36681250D01*
X54700000Y-36193750D01*
X54701174Y-36169858D01*
X54704684Y-36146197D01*
X54710496Y-36122993D01*
X54718554Y-36100471D01*
X54728782Y-36078847D01*
X54741079Y-36058330D01*
X54755329Y-36039117D01*
X54771393Y-36021393D01*
X54789117Y-36005329D01*
X54808330Y-35991079D01*
X54828847Y-35978782D01*
X54850471Y-35968554D01*
X54872993Y-35960496D01*
X54896197Y-35954684D01*
X54919858Y-35951174D01*
X54943750Y-35950000D01*
X55856250Y-35950000D01*
X55880142Y-35951174D01*
X55880142Y-35951174D01*
G37*
D14*
X55400000Y-36437500D03*
D13*
G36*
X55880142Y-34076174D02*
X55903803Y-34079684D01*
X55927007Y-34085496D01*
X55949529Y-34093554D01*
X55971153Y-34103782D01*
X55991670Y-34116079D01*
X56010883Y-34130329D01*
X56028607Y-34146393D01*
X56044671Y-34164117D01*
X56058921Y-34183330D01*
X56071218Y-34203847D01*
X56081446Y-34225471D01*
X56089504Y-34247993D01*
X56095316Y-34271197D01*
X56098826Y-34294858D01*
X56100000Y-34318750D01*
X56100000Y-34806250D01*
X56098826Y-34830142D01*
X56095316Y-34853803D01*
X56089504Y-34877007D01*
X56081446Y-34899529D01*
X56071218Y-34921153D01*
X56058921Y-34941670D01*
X56044671Y-34960883D01*
X56028607Y-34978607D01*
X56010883Y-34994671D01*
X55991670Y-35008921D01*
X55971153Y-35021218D01*
X55949529Y-35031446D01*
X55927007Y-35039504D01*
X55903803Y-35045316D01*
X55880142Y-35048826D01*
X55856250Y-35050000D01*
X54943750Y-35050000D01*
X54919858Y-35048826D01*
X54896197Y-35045316D01*
X54872993Y-35039504D01*
X54850471Y-35031446D01*
X54828847Y-35021218D01*
X54808330Y-35008921D01*
X54789117Y-34994671D01*
X54771393Y-34978607D01*
X54755329Y-34960883D01*
X54741079Y-34941670D01*
X54728782Y-34921153D01*
X54718554Y-34899529D01*
X54710496Y-34877007D01*
X54704684Y-34853803D01*
X54701174Y-34830142D01*
X54700000Y-34806250D01*
X54700000Y-34318750D01*
X54701174Y-34294858D01*
X54704684Y-34271197D01*
X54710496Y-34247993D01*
X54718554Y-34225471D01*
X54728782Y-34203847D01*
X54741079Y-34183330D01*
X54755329Y-34164117D01*
X54771393Y-34146393D01*
X54789117Y-34130329D01*
X54808330Y-34116079D01*
X54828847Y-34103782D01*
X54850471Y-34093554D01*
X54872993Y-34085496D01*
X54896197Y-34079684D01*
X54919858Y-34076174D01*
X54943750Y-34075000D01*
X55856250Y-34075000D01*
X55880142Y-34076174D01*
X55880142Y-34076174D01*
G37*
D14*
X55400000Y-34562500D03*
G04 #@! TD*
D13*
G04 #@! TO.C,C6*
G36*
X38090142Y-34086174D02*
X38113803Y-34089684D01*
X38137007Y-34095496D01*
X38159529Y-34103554D01*
X38181153Y-34113782D01*
X38201670Y-34126079D01*
X38220883Y-34140329D01*
X38238607Y-34156393D01*
X38254671Y-34174117D01*
X38268921Y-34193330D01*
X38281218Y-34213847D01*
X38291446Y-34235471D01*
X38299504Y-34257993D01*
X38305316Y-34281197D01*
X38308826Y-34304858D01*
X38310000Y-34328750D01*
X38310000Y-34816250D01*
X38308826Y-34840142D01*
X38305316Y-34863803D01*
X38299504Y-34887007D01*
X38291446Y-34909529D01*
X38281218Y-34931153D01*
X38268921Y-34951670D01*
X38254671Y-34970883D01*
X38238607Y-34988607D01*
X38220883Y-35004671D01*
X38201670Y-35018921D01*
X38181153Y-35031218D01*
X38159529Y-35041446D01*
X38137007Y-35049504D01*
X38113803Y-35055316D01*
X38090142Y-35058826D01*
X38066250Y-35060000D01*
X37153750Y-35060000D01*
X37129858Y-35058826D01*
X37106197Y-35055316D01*
X37082993Y-35049504D01*
X37060471Y-35041446D01*
X37038847Y-35031218D01*
X37018330Y-35018921D01*
X36999117Y-35004671D01*
X36981393Y-34988607D01*
X36965329Y-34970883D01*
X36951079Y-34951670D01*
X36938782Y-34931153D01*
X36928554Y-34909529D01*
X36920496Y-34887007D01*
X36914684Y-34863803D01*
X36911174Y-34840142D01*
X36910000Y-34816250D01*
X36910000Y-34328750D01*
X36911174Y-34304858D01*
X36914684Y-34281197D01*
X36920496Y-34257993D01*
X36928554Y-34235471D01*
X36938782Y-34213847D01*
X36951079Y-34193330D01*
X36965329Y-34174117D01*
X36981393Y-34156393D01*
X36999117Y-34140329D01*
X37018330Y-34126079D01*
X37038847Y-34113782D01*
X37060471Y-34103554D01*
X37082993Y-34095496D01*
X37106197Y-34089684D01*
X37129858Y-34086174D01*
X37153750Y-34085000D01*
X38066250Y-34085000D01*
X38090142Y-34086174D01*
X38090142Y-34086174D01*
G37*
D14*
X37610000Y-34572500D03*
D13*
G36*
X38090142Y-35961174D02*
X38113803Y-35964684D01*
X38137007Y-35970496D01*
X38159529Y-35978554D01*
X38181153Y-35988782D01*
X38201670Y-36001079D01*
X38220883Y-36015329D01*
X38238607Y-36031393D01*
X38254671Y-36049117D01*
X38268921Y-36068330D01*
X38281218Y-36088847D01*
X38291446Y-36110471D01*
X38299504Y-36132993D01*
X38305316Y-36156197D01*
X38308826Y-36179858D01*
X38310000Y-36203750D01*
X38310000Y-36691250D01*
X38308826Y-36715142D01*
X38305316Y-36738803D01*
X38299504Y-36762007D01*
X38291446Y-36784529D01*
X38281218Y-36806153D01*
X38268921Y-36826670D01*
X38254671Y-36845883D01*
X38238607Y-36863607D01*
X38220883Y-36879671D01*
X38201670Y-36893921D01*
X38181153Y-36906218D01*
X38159529Y-36916446D01*
X38137007Y-36924504D01*
X38113803Y-36930316D01*
X38090142Y-36933826D01*
X38066250Y-36935000D01*
X37153750Y-36935000D01*
X37129858Y-36933826D01*
X37106197Y-36930316D01*
X37082993Y-36924504D01*
X37060471Y-36916446D01*
X37038847Y-36906218D01*
X37018330Y-36893921D01*
X36999117Y-36879671D01*
X36981393Y-36863607D01*
X36965329Y-36845883D01*
X36951079Y-36826670D01*
X36938782Y-36806153D01*
X36928554Y-36784529D01*
X36920496Y-36762007D01*
X36914684Y-36738803D01*
X36911174Y-36715142D01*
X36910000Y-36691250D01*
X36910000Y-36203750D01*
X36911174Y-36179858D01*
X36914684Y-36156197D01*
X36920496Y-36132993D01*
X36928554Y-36110471D01*
X36938782Y-36088847D01*
X36951079Y-36068330D01*
X36965329Y-36049117D01*
X36981393Y-36031393D01*
X36999117Y-36015329D01*
X37018330Y-36001079D01*
X37038847Y-35988782D01*
X37060471Y-35978554D01*
X37082993Y-35970496D01*
X37106197Y-35964684D01*
X37129858Y-35961174D01*
X37153750Y-35960000D01*
X38066250Y-35960000D01*
X38090142Y-35961174D01*
X38090142Y-35961174D01*
G37*
D14*
X37610000Y-36447500D03*
G04 #@! TD*
D15*
G04 #@! TO.C,L1*
X34790000Y-22300000D03*
X44690000Y-22300000D03*
G04 #@! TD*
M02*
